<svg width="240" height="56" viewBox="0 0 240 56" fill="none" xmlns="http://www.w3.org/2000/svg">
<path d="M135.149 2C136.246 3.04528 137.329 4.09896 138.391 5.17783C135.384 8.09539 132.38 11.0213 129.398 13.9683C128.754 14.5476 127.948 15.3956 127.018 15.3956C126.045 15.4376 125.26 14.6358 124.59 14.0439C122.734 12.2303 120.883 10.4084 119.027 8.59494C120.042 7.59164 121.075 6.60513 122.137 5.648C123.733 7.61263 125.345 9.56467 126.958 11.5125C129.432 8.65372 131.881 5.77813 134.356 2.91935C134.62 2.6129 134.885 2.30645 135.149 2Z" fill="#161613"/>
<path d="M115.763 6.36585C116.258 6.81922 116.143 7.65461 116.203 8.26751C116.207 11.6384 116.147 15.0094 116.211 18.3845C116.527 18.544 116.843 18.7036 117.158 18.8631C120.546 18.1998 123.993 17.6919 127.431 18.3635C129.449 18.7581 131.309 19.6733 132.602 21.2811C134.172 23.2205 134.624 25.5798 134.65 28.0062C134.667 33.602 134.612 39.202 134.667 44.8021C134.663 46.2797 134.816 47.6147 134.172 49H124.488C124.279 48.7355 124.07 48.4711 123.861 48.2066C123.865 42.4554 123.844 36.7001 123.882 30.9489C123.865 29.7777 123.899 28.4176 123.455 27.3177C123.123 26.5075 122.338 26.0877 121.489 26.0038C119.991 25.8778 118.396 26.0457 116.988 26.5747C115.985 26.8727 116.267 28.0565 116.164 28.8457C116.19 33.1864 116.19 37.5229 116.181 41.8635C116.152 44.3235 116.425 46.5778 115.819 49H106.241C105.503 47.3586 105.806 45.3226 105.767 43.5427C105.78 31.9354 105.78 20.2946 105.763 8.6873C105.767 8.16256 105.819 7.64621 105.904 7.13826C106.702 6.50018 108.131 6.6597 109.112 6.53376C111.292 6.51697 113.609 6.02581 115.763 6.36585Z" fill="#161613"/>
<path d="M160.465 14.4217C163.336 16.2184 164.475 19.1275 165 22.3054V42.8668C162.368 44.0926 159.556 44.7391 156.672 45.0833C152.935 45.5157 148.98 45.6039 145.273 44.9028C142.585 44.3655 139.829 43.2027 138.263 40.8812C136.847 38.7948 136.711 36.3181 136.984 33.8959C137.252 31.7969 138.17 29.8197 139.876 28.4847C142.257 26.625 145.371 25.9072 148.362 25.9366C150.205 25.8988 152.026 26.264 153.861 26.2262C155.175 24.5932 154.232 20.983 151.787 20.8067C149.164 20.3282 146.237 20.7563 143.647 21.3147C142.901 21.4448 142.197 21.6337 141.446 21.4448C140.644 19.7153 140.183 17.7086 139.923 15.828C139.833 15.1647 140.128 14.8876 140.708 14.6442C143.097 13.6744 145.712 13.1581 148.264 12.8013C152.167 12.3353 157.031 12.2513 160.465 14.4217ZM149.339 31.9228C146.578 32.8464 146.105 37.7076 149.078 38.6395C150.584 39.1391 152.521 39.1643 154.019 38.6143C154.667 37.2458 154.407 35.3651 154.415 33.8791C154.373 33.2494 154.322 32.6365 154.1 32.0404C152.679 31.3981 150.793 31.3729 149.339 31.9228Z" fill="#161613"/>
<path d="M92.909 12.7761C95.7375 13.0615 98.6471 14.1278 100.465 16.3737C102.457 18.8673 102.888 21.9905 102.892 25.0718C102.858 30.9825 102.918 36.8932 102.854 42.8039C98.3186 44.7517 93.5404 45.2932 88.6343 45.2722C85.7631 45.2261 82.8663 44.9784 80.2042 43.8533C78.3867 43.0767 76.8082 41.8845 75.8824 40.1298C74.8671 38.2911 74.9439 35.8941 75.0761 33.8665C75.2254 31.7381 76.2408 29.7357 77.9558 28.4176C80.362 26.5705 83.502 25.8862 86.5011 25.9408C88.3313 25.9282 90.153 26.2934 91.9747 26.2136C92.5635 25.055 92.4227 23.145 91.7145 22.0493C90.8783 20.8109 89.1547 20.6976 87.7853 20.6472C85.1317 20.5339 82.6615 21.1887 80.0804 21.6127C79.5386 21.8268 79.2613 21.0754 79.0779 20.6976C78.5105 18.9974 78.0369 17.1839 77.8918 15.3914C78.3185 14.7533 79.1845 14.535 79.8757 14.2831C84.0395 12.9818 88.5532 12.3563 92.909 12.7761ZM92.2435 31.948C90.4773 31.6206 88.8305 31.1882 87.1027 31.969C85.0463 32.8254 84.4235 35.6086 85.5028 37.4095C86.3689 38.6899 88.0455 38.904 89.4875 38.9124C90.3493 38.8788 91.514 38.904 92.1752 38.2617C92.4739 36.1963 92.2563 34.0344 92.2435 31.948Z" fill="#161613"/>
</svg>
