<svg width="43" height="34" fill="none" xmlns="http://www.w3.org/2000/svg"><path d="M4.821 12.478c.81-1.19.98-2.7.46-4.05a5.913 5.913 0 00-2.84-3.24 4.997 4.997 0 00-.66 4.31 5.14 5.14 0 003.04 2.98zm3.65 1.21c1.47-.19 2.79-1 3.61-2.24.77-1.33.88-2.93.31-4.35a5.931 5.931 0 00-3.48 2.54c-.8 1.2-.97 2.71-.44 4.05zm.231 2.71c-.64 1.29-.6 2.81.09 4.07a5.128 5.128 0 003.29-2.69c.59-1.41.49-3.02-.26-4.35a5.992 5.992 0 00-3.12 2.97zm5.2 1.83a5.91 5.91 0 00-2.83 3.25c-.51 1.34-.34 2.85.47 4.05 1.39-.51 2.5-1.6 3.02-2.99.45-1.47.21-3.06-.66-4.31zm1.65 12.39a5.126 5.126 0 002.04-3.73c.01-1.53-.69-2.98-1.89-3.93a5.945 5.945 0 00-1.77 3.93c-.1 1.43.5 2.82 1.62 3.73zm-7.8-22.67c1.33-.54 2.31-1.7 2.63-3.11a5.88 5.88 0 00-.56-4.27 5.01 5.01 0 00-2.94 3.22c-.32 1.45-.01 2.97.87 4.16zm-2.93 9.69a4.39 4.39 0 00-.75-4c-.9-1.19-2.21-2-3.67-2.26a4.99 4.99 0 00.64 4.31c.92 1.17 2.3 1.88 3.78 1.95zm1.689 5.3a4.44 4.44 0 00-1.62-3.74 5.897 5.897 0 00-4.08-1.39c-.12 1.53.46 3.02 1.58 4.06 1.15.94 2.65 1.33 4.12 1.07zm2.561 4.38a4.425 4.425 0 00-2.68-3.07c-1.37-.57-2.91-.6-4.31-.09a4.988 4.988 0 002.74 3.39c1.39.55 2.94.46 4.25-.23zm1.119 1.82c-1.43-.4-2.96-.25-4.29.42a4.975 4.975 0 003.13 3.04c1.44.37 2.96.1 4.19-.74a4.423 4.423 0 00-3.03-2.72z" fill="#221429"/><path d="M8.001 9.398l-1.07-.53c-.06.12-5.57 11.82 9.92 25.06l.77-.91c-14.74-12.6-9.83-23.18-9.62-23.62zm30.072 3.066a4.43 4.43 0 01-.47-4.04c.51-1.4 1.52-2.56 2.84-3.25a4.96 4.96 0 01.65 4.31 5.108 5.108 0 01-3.02 2.98zm-3.649 1.2c-1.47-.19-2.79-1-3.62-2.24a4.97 4.97 0 01-.31-4.35c1.44.38 2.68 1.29 3.49 2.54.8 1.2.96 2.71.44 4.05zm-.231 2.71c.64 1.29.6 2.81-.09 4.07a5.104 5.104 0 01-3.29-2.69 5 5 0 01.26-4.35c1.37.57 2.48 1.63 3.12 2.97zm-5.2 1.83c1.32.69 2.33 1.85 2.83 3.26.51 1.34.34 2.85-.48 4.04a5.123 5.123 0 01-3.02-2.99 5 5 0 01.67-4.31zm-1.649 12.39a5.082 5.082 0 01-2.03-3.73 5 5 0 011.88-3.94 5.966 5.966 0 011.77 3.93c.1 1.44-.5 2.83-1.62 3.74zm7.799-22.67a4.436 4.436 0 01-2.63-3.11 5.88 5.88 0 01.56-4.27c1.42.57 2.5 1.76 2.93 3.23.33 1.44.01 2.96-.86 4.15zm2.93 9.7a4.39 4.39 0 01.75-4c.9-1.19 2.21-2 3.67-2.26a4.99 4.99 0 01-.64 4.31 5.117 5.117 0 01-3.78 1.95zm-1.69 5.3c-.1-1.44.5-2.83 1.62-3.74a5.945 5.945 0 014.08-1.39c.12 1.53-.46 3.02-1.59 4.06a5.147 5.147 0 01-4.11 1.07zm-2.56 4.38c.34-1.4 1.34-2.55 2.68-3.07 1.37-.57 2.91-.6 4.31-.09a4.988 4.988 0 01-2.74 3.39c-1.39.54-2.94.45-4.25-.23zm-1.119 1.81c1.43-.4 2.96-.25 4.29.42a4.975 4.975 0 01-3.13 3.04c-1.44.37-2.96.1-4.18-.74a4.41 4.41 0 013.02-2.72z" fill="#221429"/><path d="M34.893 9.374l1.07-.53c.06.12 5.57 11.82-9.92 25.05l-.77-.9c14.74-12.6 9.83-23.18 9.62-23.62z" fill="#221429"/></svg>