<svg width="24" height="24" viewBox="0 0 24 24" fill="none" xmlns="http://www.w3.org/2000/svg">
<path fill-rule="evenodd" clip-rule="evenodd" d="M12 3.39535C7.21504 3.39535 3.39535 7.24861 3.39535 12C3.39535 12.3853 3.08299 12.6977 2.69767 12.6977C2.31236 12.6977 2 12.3853 2 12C2 6.48162 6.44077 2 12 2C15.3095 2 17.7878 3.38233 19.4248 4.74798C19.8819 5.12931 20.2751 5.51056 20.6047 5.86234V3.2186C20.6047 2.83329 20.917 2.52093 21.3023 2.52093C21.6876 2.52093 22 2.83329 22 3.2186V7.86977C22 8.25508 21.6876 8.56744 21.3023 8.56744H17.1721C16.7868 8.56744 16.4744 8.25508 16.4744 7.86977C16.4744 7.48445 16.7868 7.17209 17.1721 7.17209H19.9063C19.5591 6.76967 19.1004 6.29448 18.531 5.81946C17.0681 4.59907 14.8952 3.39535 12 3.39535ZM21.3023 11.3023C21.6876 11.3023 22 11.6147 22 12C22 17.5202 17.5202 22 12 22C9.19027 22 6.96231 20.5859 5.47082 19.2331C5.07492 18.874 4.72647 18.5153 4.42791 18.1818V20.7814C4.42791 21.1667 4.11555 21.4791 3.73023 21.4791C3.34492 21.4791 3.03256 21.1667 3.03256 20.7814V16.1302C3.03256 15.7449 3.34492 15.4326 3.73023 15.4326H7.93488C8.3202 15.4326 8.63256 15.7449 8.63256 16.1302C8.63256 16.5155 8.3202 16.8279 7.93488 16.8279H5.10428C5.4399 17.2359 5.8776 17.7182 6.40825 18.1995C7.76792 19.4327 9.67485 20.6047 12 20.6047C16.7496 20.6047 20.6047 16.7496 20.6047 12C20.6047 11.6147 20.917 11.3023 21.3023 11.3023Z" fill="#292D32"/>
</svg>
