<?xml version="1.0" encoding="utf-8"?>
<!-- Generator: Adobe Illustrator 24.1.0, SVG Export Plug-In . SVG Version: 6.00 Build 0)  -->
<svg version="1.1" id="Layer_1" xmlns="http://www.w3.org/2000/svg" xmlns:xlink="http://www.w3.org/1999/xlink" x="0px" y="0px"
	 viewBox="0 0 445.6 93.2" style="enable-background:new 0 0 445.6 93.2;" xml:space="preserve">
<style type="text/css">
	.st0{fill:#EF5667;}
	.st1{fill:#333333;}
</style>
<g>
	<path id="XMLID_6_" class="st0" d="M36.6,0.2c-9.1-1-18.3,1.9-25.3,7.9C4.1,14.4,0,23.4,0,32.9c0,15.9,9.9,28.8,25.1,32.8
		c0.3,0.1,7.6,2.1,8.3,9.4v14.1c0,2,1.6,3.6,3.6,3.6s3.6-1.6,3.6-3.6V75l0-0.3c-1-12.6-13.2-15.8-13.7-16
		C12.4,54.9,7.2,42.9,7.2,32.9c0-7.4,3.2-14.5,8.9-19.4c5.4-4.7,12.6-6.9,19.7-6.2c6.3,0.7,11.8,3.7,15.4,8.6
		c6.5,8.8,5,20.9-3.5,28.2c-2.9,2.5-7.1,3.6-11.6,3.1c-4.5-0.5-8.6-2.5-11.2-5.5c-4.1-4.7-3.8-12.8,0.6-17.2
		c3.9-3.9,10.3-3.4,13.4-0.3c1.5,1.5,2.2,3.2,2,5c-0.1,1.6-0.9,2.9-2.1,3.8c-0.9,0.7-2.3,1-3.3,0.7c-0.4-0.1-0.8-0.3-1-1
		c-0.8-1.8-2.9-2.7-4.7-2c-1.8,0.8-2.7,2.9-2,4.7c1.1,2.6,3.1,4.4,5.7,5.2c3,0.9,6.7,0.2,9.4-1.8c3-2.1,4.8-5.4,5.1-9.1
		c0.3-3.9-1.2-7.8-4.1-10.7c-6.2-6.2-17.2-6.1-23.6,0.3c-7,7.1-7.5,19.4-1,27c3.8,4.4,9.6,7.3,15.9,7.9c6.5,0.7,12.7-1.1,17.1-4.8
		c11.4-9.8,13.4-26.2,4.5-38C52.2,5.2,44.9,1.1,36.6,0.2z"/>
	<g>
		<path class="st0" d="M88.2,56V30.8c0-0.2,0.1-0.3,0.2-0.5c0.1-0.1,0.3-0.2,0.5-0.2h4.7c0.2,0,0.3,0.1,0.5,0.2
			c0.1,0.1,0.2,0.3,0.2,0.5V51h8.9c0.2,0,0.3,0.1,0.5,0.2c0.1,0.1,0.2,0.3,0.2,0.5V56c0,0.2-0.1,0.3-0.2,0.5
			c-0.1,0.1-0.3,0.2-0.5,0.2H88.9c-0.2,0-0.3-0.1-0.5-0.2C88.2,56.4,88.2,56.2,88.2,56z"/>
		<path class="st0" d="M108.4,43.4c0-0.8,0.1-1.7,0.2-2.5c0.1-0.8,0.3-1.7,0.7-2.6c0.3-0.9,0.7-1.8,1.2-2.6c0.5-0.8,1.1-1.6,1.8-2.3
			c0.7-0.7,1.5-1.4,2.4-1.9s1.9-1,3.1-1.3c1.2-0.3,2.5-0.5,3.9-0.5c1.9,0,3.7,0.3,5.2,0.9c1.5,0.6,2.8,1.4,3.8,2.3
			c1,0.9,1.8,2,2.4,3.3c0.6,1.2,1.1,2.4,1.4,3.6c0.3,1.2,0.4,2.4,0.4,3.6c0,0.9-0.1,1.7-0.2,2.6c-0.1,0.9-0.3,1.7-0.7,2.6
			c-0.3,0.9-0.7,1.8-1.1,2.6c-0.5,0.8-1,1.6-1.7,2.3c-0.7,0.7-1.5,1.4-2.4,1.9c-0.9,0.5-1.9,1-3.1,1.3c-1.2,0.3-2.5,0.5-3.9,0.5
			c-1.4,0-2.7-0.2-3.9-0.5c-1.2-0.3-2.2-0.7-3.1-1.3c-0.9-0.5-1.7-1.2-2.4-1.9c-0.7-0.7-1.3-1.5-1.8-2.3c-0.5-0.8-0.8-1.7-1.2-2.6
			c-0.3-0.9-0.5-1.8-0.7-2.6S108.4,44.2,108.4,43.4z M114.6,43.4c0,0.4,0,0.8,0.1,1.3c0.1,0.5,0.2,1,0.3,1.7
			c0.2,0.6,0.4,1.2,0.8,1.8s0.8,1.1,1.2,1.6c0.5,0.5,1.1,0.9,1.9,1.2c0.8,0.3,1.7,0.5,2.6,0.5c0.8,0,1.6-0.1,2.3-0.3
			c0.7-0.2,1.3-0.5,1.7-0.9c0.5-0.4,0.9-0.8,1.2-1.3c0.4-0.5,0.6-1,0.8-1.5s0.4-1,0.5-1.5c0.1-0.5,0.2-1,0.2-1.4
			c0-0.4,0.1-0.7,0.1-1.1c0-0.5,0-1-0.1-1.6c-0.1-0.6-0.3-1.2-0.6-2c-0.3-0.8-0.7-1.5-1.2-2.1c-0.5-0.6-1.2-1.1-2-1.6
			c-0.9-0.4-1.9-0.7-3.1-0.7c-1.2,0-2.2,0.2-3.1,0.7c-0.9,0.4-1.6,1-2.1,1.6c-0.5,0.6-0.9,1.3-1.2,2.1c-0.3,0.8-0.5,1.5-0.6,2
			C114.6,42.4,114.6,42.9,114.6,43.4z"/>
		<path class="st0" d="M140.8,56V30.8c0-0.2,0.1-0.3,0.2-0.5c0.1-0.1,0.3-0.2,0.5-0.2h4.7c0.2,0,0.3,0.1,0.5,0.2
			c0.1,0.1,0.2,0.3,0.2,0.5V51h8.9c0.2,0,0.3,0.1,0.5,0.2c0.1,0.1,0.2,0.3,0.2,0.5V56c0,0.2-0.1,0.3-0.2,0.5
			c-0.1,0.1-0.3,0.2-0.5,0.2h-14.3c-0.2,0-0.3-0.1-0.5-0.2C140.9,56.4,140.8,56.2,140.8,56z"/>
		<path class="st0" d="M163.2,56V30.8c0-0.2,0.1-0.3,0.2-0.5c0.1-0.1,0.3-0.2,0.5-0.2h4.7c0.2,0,0.3,0.1,0.5,0.2
			c0.1,0.1,0.2,0.3,0.2,0.5V51h8.9c0.2,0,0.3,0.1,0.5,0.2c0.1,0.1,0.2,0.3,0.2,0.5V56c0,0.2-0.1,0.3-0.2,0.5
			c-0.1,0.1-0.3,0.2-0.5,0.2h-14.3c-0.2,0-0.3-0.1-0.5-0.2C163.2,56.4,163.2,56.2,163.2,56z"/>
		<path class="st0" d="M180.7,30.7c0-0.1-0.1-0.1-0.1-0.2c0-0.1,0-0.1,0.1-0.2c0.1-0.1,0.2-0.2,0.3-0.2h5.4c0.4,0,0.8,0.2,1,0.6
			l5,8.3l5-8.3c0.2-0.4,0.5-0.6,1-0.6h5.4c0.1,0,0.3,0.1,0.4,0.2c0,0.1,0.1,0.1,0.1,0.2c0,0.1,0,0.1-0.1,0.2l-8.7,14.2V56
			c0,0.2-0.1,0.3-0.2,0.5c-0.1,0.1-0.3,0.2-0.5,0.2h-4.6c-0.2,0-0.3-0.1-0.5-0.2c-0.1-0.1-0.2-0.3-0.2-0.5V45L180.7,30.7z"/>
		<path class="st0" d="M210.7,56V30.8c0-0.2,0.1-0.3,0.2-0.5c0.1-0.1,0.3-0.2,0.5-0.2h9.6c1.4,0,2.7,0.2,3.8,0.6
			c1.1,0.4,2,0.9,2.8,1.5c0.7,0.6,1.3,1.3,1.8,2.1c0.5,0.8,0.8,1.6,1,2.3c0.2,0.8,0.3,1.5,0.3,2.3c0,1.7-0.5,3.2-1.4,4.6
			c-0.9,1.4-2.1,2.4-3.5,3.1c-1.4,0.7-2.8,1.1-4.4,1.1h-4.6V56c0,0.2-0.1,0.3-0.2,0.5c-0.1,0.1-0.3,0.2-0.5,0.2h-4.7
			c-0.2,0-0.3-0.1-0.5-0.2C210.8,56.4,210.7,56.2,210.7,56z M216.8,42.1h4.4c0.5,0,0.9-0.1,1.3-0.3s0.7-0.4,0.9-0.6
			c0.2-0.2,0.4-0.5,0.6-0.8c0.1-0.3,0.2-0.6,0.3-0.8c0.1-0.2,0.1-0.5,0.1-0.7c0-0.3,0-0.6-0.1-1s-0.3-0.7-0.5-1
			c-0.2-0.3-0.6-0.6-1-0.8c-0.5-0.2-1-0.3-1.7-0.3h-4.3V42.1z"/>
		<path class="st0" d="M235.1,43.4c0-0.8,0.1-1.7,0.2-2.5c0.1-0.8,0.3-1.7,0.7-2.6c0.3-0.9,0.7-1.8,1.2-2.6c0.5-0.8,1.1-1.6,1.8-2.3
			c0.7-0.7,1.5-1.4,2.4-1.9c0.9-0.5,1.9-1,3.1-1.3c1.2-0.3,2.5-0.5,3.9-0.5c1.9,0,3.7,0.3,5.2,0.9c1.5,0.6,2.8,1.4,3.8,2.3
			c1,0.9,1.8,2,2.4,3.3c0.6,1.2,1.1,2.4,1.4,3.6c0.3,1.2,0.4,2.4,0.4,3.6c0,0.9-0.1,1.7-0.2,2.6c-0.1,0.9-0.3,1.7-0.7,2.6
			c-0.3,0.9-0.7,1.8-1.1,2.6c-0.5,0.8-1,1.6-1.7,2.3c-0.7,0.7-1.5,1.4-2.4,1.9c-0.9,0.5-1.9,1-3.1,1.3c-1.2,0.3-2.5,0.5-3.9,0.5
			c-1.4,0-2.7-0.2-3.9-0.5c-1.2-0.3-2.2-0.7-3.1-1.3c-0.9-0.5-1.7-1.2-2.4-1.9c-0.7-0.7-1.3-1.5-1.8-2.3c-0.5-0.8-0.8-1.7-1.2-2.6
			c-0.3-0.9-0.5-1.8-0.7-2.6C235.1,45.1,235.1,44.2,235.1,43.4z M241.2,43.4c0,0.4,0,0.8,0.1,1.3c0.1,0.5,0.2,1,0.3,1.7
			c0.2,0.6,0.4,1.2,0.8,1.8s0.8,1.1,1.2,1.6c0.5,0.5,1.1,0.9,1.9,1.2c0.8,0.3,1.7,0.5,2.6,0.5c0.8,0,1.6-0.1,2.3-0.3
			c0.7-0.2,1.3-0.5,1.7-0.9c0.5-0.4,0.9-0.8,1.2-1.3c0.4-0.5,0.6-1,0.8-1.5c0.2-0.5,0.4-1,0.5-1.5c0.1-0.5,0.2-1,0.2-1.4
			c0-0.4,0.1-0.7,0.1-1.1c0-0.5,0-1-0.1-1.6s-0.3-1.2-0.6-2c-0.3-0.8-0.7-1.5-1.2-2.1c-0.5-0.6-1.2-1.1-2-1.6
			c-0.9-0.4-1.9-0.7-3.1-0.7s-2.2,0.2-3.1,0.7c-0.9,0.4-1.6,1-2.1,1.6c-0.5,0.6-0.9,1.3-1.2,2.1c-0.3,0.8-0.5,1.5-0.6,2
			C241.3,42.4,241.2,42.9,241.2,43.4z"/>
		<path class="st0" d="M267.5,56V30.8c0-0.2,0.1-0.3,0.2-0.5c0.1-0.1,0.3-0.2,0.5-0.2h9.6c1.4,0,2.7,0.2,3.8,0.6
			c1.1,0.4,2,0.9,2.8,1.5c0.7,0.6,1.3,1.3,1.8,2.1c0.5,0.8,0.8,1.6,1,2.3c0.2,0.8,0.3,1.5,0.3,2.3c0,1.7-0.5,3.2-1.4,4.6
			c-0.9,1.4-2.1,2.4-3.5,3.1c-1.4,0.7-2.8,1.1-4.4,1.1h-4.6V56c0,0.2-0.1,0.3-0.2,0.5s-0.3,0.2-0.5,0.2h-4.7c-0.2,0-0.3-0.1-0.5-0.2
			C267.5,56.4,267.5,56.2,267.5,56z M273.6,42.1h4.4c0.5,0,0.9-0.1,1.3-0.3c0.4-0.2,0.7-0.4,0.9-0.6c0.2-0.2,0.4-0.5,0.6-0.8
			c0.1-0.3,0.2-0.6,0.3-0.8c0.1-0.2,0.1-0.5,0.1-0.7c0-0.3,0-0.6-0.1-1s-0.3-0.7-0.5-1c-0.2-0.3-0.6-0.6-1-0.8
			c-0.5-0.2-1-0.3-1.7-0.3h-4.3V42.1z"/>
		<path class="st0" d="M287.6,53.6c0-0.9,0.3-1.7,1-2.4c0.6-0.7,1.4-1,2.3-1c0.9,0,1.6,0.3,2.3,1c0.6,0.6,0.9,1.4,0.9,2.4
			c0,0.9-0.3,1.7-0.9,2.3c-0.6,0.6-1.4,1-2.3,1c-0.9,0-1.6-0.3-2.3-1C287.9,55.3,287.6,54.5,287.6,53.6z"/>
		<path class="st0" d="M304.2,56V30.8c0-0.2,0.1-0.3,0.2-0.5c0.1-0.1,0.3-0.2,0.5-0.2h8.8c1.4,0,2.7,0.1,3.9,0.4
			c1.2,0.3,2.2,0.7,3.1,1.2c0.9,0.5,1.7,1.1,2.4,1.8c0.7,0.7,1.3,1.4,1.7,2.2c0.5,0.8,0.8,1.6,1.1,2.5c0.3,0.9,0.5,1.7,0.7,2.6
			c0.1,0.8,0.2,1.7,0.2,2.5c0,1.2-0.1,2.4-0.4,3.6c-0.3,1.2-0.7,2.4-1.3,3.5c-0.6,1.2-1.4,2.2-2.4,3.1c-1,0.9-2.2,1.6-3.8,2.2
			c-1.5,0.6-3.3,0.9-5.2,0.9h-8.8c-0.2,0-0.3-0.1-0.5-0.2C304.2,56.4,304.2,56.2,304.2,56z M310.2,51h3.5c0.8,0,1.6-0.1,2.3-0.3
			c0.7-0.2,1.3-0.5,1.8-0.8c0.5-0.3,0.9-0.8,1.3-1.2c0.4-0.5,0.6-0.9,0.9-1.4c0.2-0.5,0.4-1,0.5-1.5c0.1-0.5,0.2-1,0.3-1.3
			c0-0.4,0.1-0.7,0.1-1c0-0.4,0-0.8-0.1-1.3c-0.1-0.4-0.2-1-0.3-1.6c-0.2-0.6-0.4-1.2-0.8-1.7c-0.3-0.5-0.8-1-1.2-1.5
			c-0.5-0.5-1.1-0.8-1.9-1.1c-0.8-0.3-1.7-0.4-2.6-0.4h-3.5V51z"/>
		<path class="st0" d="M332.9,56V30.8c0-0.2,0.1-0.3,0.2-0.5c0.1-0.1,0.3-0.2,0.5-0.2h17c0.2,0,0.3,0.1,0.5,0.2
			c0.1,0.1,0.2,0.3,0.2,0.5v4.3c0,0.2-0.1,0.3-0.2,0.5c-0.1,0.1-0.3,0.2-0.5,0.2h-11.6v5h9c0.2,0,0.3,0.1,0.5,0.2
			c0.1,0.1,0.2,0.3,0.2,0.5v4.3c0,0.2-0.1,0.3-0.2,0.5c-0.1,0.1-0.3,0.2-0.5,0.2h-9V51h11.6c0.2,0,0.3,0.1,0.5,0.2
			c0.1,0.1,0.2,0.3,0.2,0.5V56c0,0.2-0.1,0.3-0.2,0.5c-0.1,0.1-0.3,0.2-0.5,0.2h-17c-0.2,0-0.3-0.1-0.5-0.2
			C333,56.4,332.9,56.2,332.9,56z"/>
		<path class="st0" d="M356.1,54c0-0.1,0-0.2,0-0.2c0-0.1,0-0.2,0.1-0.3l2.1-3.9c0.1-0.2,0.2-0.3,0.4-0.3c0.2-0.1,0.4,0,0.5,0
			c2.9,1.3,5.2,2,7,2c1,0,1.9-0.2,2.6-0.6c0.7-0.4,1.1-1,1.1-1.6c0-0.3-0.1-0.6-0.3-0.9c-0.2-0.3-0.4-0.5-0.6-0.7
			c-0.2-0.2-0.6-0.4-1-0.6s-0.8-0.4-1.2-0.5c-0.4-0.1-0.8-0.3-1.5-0.5c-2.1-0.7-3.7-1.3-4.6-1.8c-2.3-1.2-3.7-3-4-5.2
			c-0.1-0.4-0.1-0.8-0.1-1.2c0-2.4,0.8-4.4,2.4-5.8c1.6-1.4,3.7-2.1,6.3-2.1c3.1,0,6.3,0.8,9.6,2.3c0.4,0.2,0.5,0.5,0.3,0.9
			l-1.7,3.9c-0.1,0.2-0.2,0.3-0.4,0.4c-0.2,0.1-0.4,0.1-0.5,0c-3.2-1.2-5.5-1.7-6.9-1.7c-0.9,0-1.6,0.2-2.2,0.5
			c-0.6,0.3-0.8,0.8-0.8,1.4c0,0.2,0,0.4,0.1,0.5c0.1,0.2,0.2,0.3,0.3,0.5c0.1,0.1,0.3,0.3,0.4,0.4c0.1,0.1,0.3,0.3,0.6,0.4
			c0.3,0.1,0.5,0.2,0.7,0.3c0.2,0.1,0.5,0.2,0.8,0.3c0.3,0.1,0.6,0.2,0.8,0.3c0.2,0.1,0.5,0.2,1,0.3c0.4,0.1,0.7,0.3,1,0.3
			c0.9,0.3,1.6,0.6,2.2,0.9c0.6,0.3,1.3,0.6,2,1.1c0.7,0.5,1.3,1,1.8,1.5c0.5,0.5,0.8,1.2,1.2,1.9c0.3,0.8,0.5,1.6,0.5,2.6
			c0,2.3-0.9,4.3-2.8,5.8c-1.8,1.6-4.2,2.3-7.1,2.3c-1.8,0-3.4-0.2-5-0.6c-1.6-0.4-3.2-1.1-4.9-1.9C356.2,54.4,356.1,54.2,356.1,54z
			"/>
		<path class="st0" d="M382.2,56V30.8c0-0.2,0.1-0.3,0.2-0.5c0.1-0.1,0.3-0.2,0.5-0.2h4.7c0.2,0,0.3,0.1,0.5,0.2
			c0.1,0.1,0.2,0.3,0.2,0.5V56c0,0.2-0.1,0.3-0.2,0.5c-0.1,0.1-0.3,0.2-0.5,0.2h-4.7c-0.2,0-0.3-0.1-0.5-0.2
			C382.2,56.4,382.2,56.2,382.2,56z"/>
		<path class="st0" d="M394.3,43.4c0-0.8,0.1-1.7,0.2-2.5c0.1-0.8,0.3-1.7,0.7-2.6c0.3-0.9,0.7-1.8,1.2-2.6c0.5-0.8,1.1-1.6,1.8-2.3
			c0.7-0.7,1.5-1.4,2.4-1.9c0.9-0.5,1.9-1,3.1-1.3c1.2-0.3,2.5-0.5,3.9-0.5c3.6,0,6.8,1.4,9.6,4.1c0.1,0.1,0.2,0.3,0.2,0.5
			c0,0.2-0.1,0.4-0.2,0.5l-2.9,3.1c-0.1,0.1-0.3,0.2-0.5,0.2c-0.2,0-0.3,0-0.5-0.2c-0.8-0.7-1.8-1.3-2.9-1.8c-1.1-0.5-2.1-0.7-3-0.7
			c-0.8,0-1.6,0.1-2.3,0.3c-0.7,0.2-1.3,0.5-1.8,0.9c-0.5,0.4-0.9,0.8-1.3,1.3c-0.4,0.5-0.6,1-0.9,1.4c-0.2,0.5-0.4,1-0.5,1.5
			c-0.1,0.5-0.2,1-0.3,1.4c0,0.4-0.1,0.7-0.1,1.1c0,0.3,0,0.7,0.1,1.1c0,0.4,0.1,0.8,0.3,1.4c0.1,0.5,0.3,1.1,0.5,1.6
			c0.2,0.5,0.5,1,0.9,1.5c0.4,0.5,0.8,0.9,1.3,1.3c0.5,0.4,1.1,0.7,1.8,0.9c0.7,0.2,1.5,0.3,2.3,0.3c0.7,0,1.3-0.1,2.1-0.3
			c0.7-0.2,1.3-0.5,1.7-0.8v-2.5h-4.3c-0.2,0-0.3-0.1-0.5-0.2c-0.1-0.1-0.2-0.3-0.2-0.5v-4.3c0-0.2,0.1-0.3,0.2-0.5
			c0.1-0.1,0.3-0.2,0.5-0.2h9.8c0.2,0,0.3,0.1,0.5,0.2c0.1,0.1,0.2,0.3,0.2,0.5v9.4c0,0.5-0.2,0.9-0.5,1.2c-2.6,2.4-5.7,3.6-9.4,3.6
			c-1.4,0-2.7-0.2-3.9-0.5c-1.2-0.3-2.2-0.7-3.1-1.2c-0.9-0.5-1.7-1.1-2.4-1.9c-0.7-0.7-1.3-1.5-1.8-2.3c-0.5-0.8-0.8-1.7-1.2-2.6
			c-0.3-0.9-0.5-1.8-0.7-2.6C394.3,45.1,394.3,44.3,394.3,43.4z"/>
		<path class="st0" d="M423.6,56V30.4c0-0.1,0-0.3,0.1-0.4c0.1-0.1,0.2-0.2,0.4-0.2c0.4,0,0.7,0.1,1,0.4l14.4,13.5V30.8
			c0-0.2,0.1-0.3,0.2-0.5c0.1-0.1,0.3-0.2,0.5-0.2h4.7c0.2,0,0.3,0.1,0.5,0.2c0.1,0.1,0.2,0.3,0.2,0.5v25.6c0,0.1,0,0.2-0.1,0.3
			c-0.1,0.1-0.2,0.1-0.4,0.1c-0.3,0-0.6-0.1-0.8-0.3l-14.6-13.8V56c0,0.2-0.1,0.3-0.2,0.5c-0.1,0.1-0.3,0.2-0.5,0.2h-4.7
			c-0.2,0-0.3-0.1-0.5-0.2C423.7,56.4,423.6,56.2,423.6,56z"/>
	</g>
	<g>
		<path class="st1" d="M99.7,92.9l-1.6-4.1h-6.6l-1.6,4.1h-2.1l5.9-14.6H96l6,14.6H99.7z M94.9,80.3l-2.6,6.8h5.2L94.9,80.3z"/>
		<path class="st1" d="M291.5,82.1c-0.9-1.4-2.3-2.2-4.1-2.2c-3,0-5,2.3-5,5.7c0,3.4,2,5.7,4.9,5.7c1.8,0,3.2-0.9,4.1-2.3l1.7,1.1
			c-1.2,1.9-3.2,3-5.8,3c-4.3,0-7.1-3.2-7.1-7.6c0-4.4,2.8-7.6,7.1-7.6c2.5,0,4.4,1.1,5.7,2.9L291.5,82.1z"/>
		<path class="st1" d="M303.7,93.2c-4.4,0-7.1-3.3-7.1-7.6c0-4.3,2.8-7.6,7.1-7.6c4.4,0,7.1,3.3,7.1,7.6
			C310.8,89.9,308,93.2,303.7,93.2z M303.7,80c-3.1,0-5,2.3-5,5.6c0,3.3,1.9,5.7,5,5.7c3.1,0,5-2.3,5-5.7
			C308.6,82.3,306.8,80,303.7,80z"/>
		<path class="st1" d="M328.9,92.9V80.4l-4.8,12.5h-1.8l-4.8-12.5v12.5h-2V78.3h3.1l4.6,12l4.6-12h3v14.6H328.9z"/>
		<path class="st1" d="M342.7,87.4h-4.1v5.5h-2.1V78.3h6.1c3.3,0,5.2,1.8,5.2,4.5S346,87.4,342.7,87.4z M342.7,85.5c2,0,3-1,3-2.6
			c0-1.6-1-2.7-3-2.7h-4.1v5.3H342.7z"/>
		<path class="st1" d="M361.4,92.9l-1.6-4.1h-6.6l-1.6,4.1h-2.1l5.9-14.6h2.3l6,14.6H361.4z M356.6,80.3l-2.6,6.8h5.2L356.6,80.3z"
			/>
		<path class="st1" d="M377.3,92.9l-7.7-12v12h-2V78.3h2.6l7.4,11.7V78.3h2v14.6H377.3z"/>
		<path class="st1" d="M391.2,87v6h-2.1V87l-5.6-8.7h2.4l4.2,6.8l4.3-6.8h2.3L391.2,87z"/>
	</g>
	<g>
		<path class="st1" d="M120.7,79.9v12.7h-2.1V79.9h-4.9V78h11.9v1.9H120.7z"/>
		<path class="st1" d="M130.4,92.5V78h10.3v1.9h-8.3V84h5.3v1.8h-5.3v4.9h8.5v1.9H130.4z"/>
		<path class="st1" d="M189.4,92.5l-1.6-4h-6.6l-1.6,4h-2.1l5.9-14.5h2.2l5.9,14.5H189.4z M184.6,80l-2.6,6.7h5.2L184.6,80z"/>
		<path class="st1" d="M196.1,92.5V78h2v12.7h8.1v1.9H196.1z"/>
		<path class="st1" d="M216.4,92.8c-4.3,0-7.1-3.3-7.1-7.5c0-4.3,2.8-7.5,7.1-7.5c4.3,0,7.1,3.3,7.1,7.5
			C223.6,89.5,220.8,92.8,216.4,92.8z M216.4,79.6c-3.1,0-5,2.3-5,5.6c0,3.3,1.9,5.6,5,5.6c3.1,0,5-2.3,5-5.6
			C221.4,82,219.5,79.6,216.4,79.6z"/>
		<path class="st1" d="M229.9,85.3c0,3.4,1.9,5.7,5,5.7c2.6,0,4.5-1.6,4.7-4.1h-4.7v-1.8h6.7c0,0.3,0.1,0.6,0.1,1.1
			c0,3.5-2.4,6.6-6.7,6.6c-4.3,0-7.1-3.2-7.1-7.6c0-4.4,2.8-7.5,7.1-7.5c2.5,0,4.4,1,5.7,2.9l-1.6,1.1c-0.9-1.4-2.3-2.2-4.1-2.2
			C231.8,79.6,229.9,81.9,229.9,85.3z"/>
		<path class="st1" d="M246.6,92.5V78h2v14.5H246.6z"/>
		<path class="st1" d="M265,81.8c-0.9-1.4-2.2-2.2-4.1-2.2c-3,0-5,2.3-5,5.6c0,3.4,2,5.7,4.9,5.7c1.8,0,3.2-0.9,4.1-2.3l1.7,1.1
			c-1.2,1.9-3.2,3-5.8,3c-4.3,0-7.1-3.2-7.1-7.5c0-4.3,2.8-7.5,7.1-7.5c2.5,0,4.4,1,5.7,2.9L265,81.8z"/>
		<path class="st1" d="M154.3,86.3c1.7-0.6,3-2,3-4.1c0-2.6-1.9-4.3-4.9-4.3h-6.4v14.5h2.1v-4.9h0v-3.7h0v-4.1h4.3
			c1.7,0,2.8,1,2.8,2.5c0,1.5-1.1,2.5-2.8,2.5h-2.2v1.8h2l3.1,5.9h2.3L154.3,86.3z"/>
		<path class="st1" d="M170.4,86.3c1.7-0.6,3-2,3-4.1c0-2.6-1.9-4.3-4.9-4.3h-6.4v14.5h2.1v-4.9h0v-3.7h0v-4.1h4.3
			c1.7,0,2.8,1,2.8,2.5c0,1.5-1.1,2.5-2.8,2.5h-2.2v1.8h2l3.1,5.9h2.3L170.4,86.3z"/>
	</g>
</g>
</svg>
