<svg width="50" height="50" viewBox="0 0 50 50" fill="none" xmlns="http://www.w3.org/2000/svg">
<path d="M0 25C0 11.1929 11.1929 0 25 0C38.8071 0 50 11.1929 50 25C50 38.8071 38.8071 50 25 50C11.1929 50 0 38.8071 0 25Z" fill="white"/>
<path d="M16.5182 28.1822L24.2964 20.404C24.6853 20.0151 25.3217 20.0151 25.7106 20.404C26.0995 20.7929 26.0995 21.4293 25.7106 21.8182L17.9325 29.5964C17.5435 29.9853 16.9072 29.9853 16.5182 29.5964C16.1293 29.2075 16.1293 28.5711 16.5182 28.1822Z" fill="#FD2E35"/>
<path d="M25.6979 20.404L33.4761 28.1822C33.865 28.5711 33.865 29.2075 33.4761 29.5964C33.0872 29.9853 32.4508 29.9853 32.0619 29.5964L24.2837 21.8182C23.8948 21.4293 23.8948 20.7929 24.2837 20.404C24.6726 20.0151 25.309 20.0151 25.6979 20.404Z" fill="#FD2E35"/>
</svg>
