<?xml version="1.0" encoding="UTF-8"?>
<svg xmlns="http://www.w3.org/2000/svg" width="106" height="25" viewBox="0 0 106 25" fill="none">
  <path d="M21.9427 22.5463C21.9221 22.5804 21.8832 22.6338 21.8266 22.7061C21.77 22.7783 21.6906 22.8513 21.5892 22.9252C21.4878 22.9992 21.363 23.0639 21.2153 23.119C21.0673 23.1736 20.8918 23.2015 20.689 23.2015C20.4413 23.2015 20.215 23.1556 20.0105 23.0645C19.8055 22.9739 19.6303 22.8472 19.484 22.6855C19.3378 22.5236 19.225 22.3326 19.1462 22.1128C19.0668 21.8924 19.0273 21.6534 19.0273 21.3955C19.0273 21.1442 19.0668 20.9095 19.1462 20.6912C19.225 20.4725 19.3378 20.2817 19.484 20.118C19.6303 19.9549 19.8055 19.8268 20.0105 19.7336C20.215 19.6408 20.4414 19.5945 20.689 19.5945C20.8918 19.5945 21.0673 19.6221 21.2153 19.6767C21.363 19.7318 21.4879 19.7966 21.5892 19.8704C21.6906 19.9446 21.77 20.0176 21.8266 20.0896C21.8832 20.1622 21.9221 20.2155 21.9427 20.2497L21.7569 20.3787C21.7364 20.3512 21.7028 20.3072 21.6564 20.2471C21.61 20.1869 21.5445 20.1259 21.4601 20.0641C21.3758 20.0019 21.2719 19.9472 21.1481 19.8988C21.0243 19.8506 20.8747 19.8267 20.6991 19.8267C20.4789 19.8267 20.2819 19.8671 20.1083 19.9479C19.9346 20.0289 19.7874 20.1397 19.6671 20.2807C19.5466 20.4217 19.4545 20.5879 19.3909 20.7784C19.3273 20.9695 19.2956 21.1751 19.2956 21.3954C19.2956 21.6152 19.3281 21.8209 19.3937 22.0119C19.4588 22.2026 19.5516 22.3697 19.6721 22.5128C19.7925 22.6552 19.9406 22.767 20.116 22.8479C20.2915 22.9287 20.4909 22.9692 20.7146 22.9692C20.8762 22.9692 21.0181 22.9454 21.1402 22.8971C21.2624 22.8489 21.3655 22.7938 21.4498 22.7316C21.5342 22.6696 21.6014 22.6089 21.6511 22.5486C21.701 22.4887 21.7364 22.4448 21.7569 22.417L21.9427 22.5463Z" fill="#595050"></path>
  <path d="M23.5631 23.1809C23.3943 23.1809 23.2361 23.148 23.0883 23.0826C22.9403 23.0177 22.8104 22.928 22.6985 22.8145C22.5869 22.7008 22.4989 22.5686 22.4356 22.4173C22.3718 22.2659 22.3398 22.1043 22.3398 21.9322C22.3398 21.7601 22.3718 21.5985 22.4356 21.4469C22.4988 21.2959 22.5869 21.1632 22.6985 21.0499C22.8104 20.9365 22.9403 20.8469 23.0883 20.7814C23.2361 20.7159 23.3943 20.6836 23.5631 20.6836C23.7313 20.6836 23.8898 20.716 24.0377 20.7814C24.1854 20.8469 24.3153 20.9365 24.4273 21.0499C24.5389 21.1633 24.6266 21.2959 24.6904 21.4469C24.754 21.5985 24.786 21.7601 24.786 21.9322C24.786 22.1043 24.754 22.2659 24.6904 22.4173C24.6266 22.5686 24.5388 22.7009 24.4273 22.8145C24.3154 22.928 24.1855 23.0177 24.0377 23.0826C23.8898 23.148 23.7312 23.1809 23.5631 23.1809ZM23.5631 22.9693C23.7005 22.9693 23.8296 22.9419 23.9501 22.8866C24.0703 22.8316 24.1744 22.7578 24.2621 22.6647C24.3499 22.5717 24.4187 22.4626 24.4686 22.3373C24.5183 22.2114 24.5434 22.0764 24.5434 21.9322C24.5434 21.7948 24.5175 21.6629 24.4661 21.5375C24.4143 21.4119 24.3446 21.3009 24.2568 21.2049C24.1691 21.1085 24.0652 21.0328 23.9448 20.9777C23.8243 20.9224 23.6971 20.8946 23.5631 20.8946C23.4221 20.8946 23.2921 20.9224 23.1736 20.9777C23.0547 21.0327 22.9515 21.1062 22.8638 21.1995C22.776 21.2922 22.7072 21.4015 22.6575 21.5271C22.6075 21.6526 22.5825 21.7876 22.5825 21.9322C22.5825 22.0732 22.6084 22.2057 22.66 22.3294C22.7117 22.453 22.781 22.5633 22.869 22.6595C22.9568 22.7559 23.0606 22.8316 23.1811 22.8867C23.3016 22.942 23.4289 22.9693 23.5631 22.9693Z" fill="#595050"></path>
  <path d="M25.3895 21.2456C25.3895 21.1806 25.3895 21.1242 25.3895 21.0782C25.3895 21.0316 25.3895 20.9902 25.3895 20.9543C25.3895 20.9179 25.3884 20.8836 25.3868 20.8511C25.3847 20.8185 25.3822 20.7831 25.3789 20.7451H25.5955C25.599 20.783 25.6015 20.8175 25.6035 20.8487C25.605 20.8794 25.6069 20.9126 25.6085 20.9491C25.6102 20.985 25.611 21.0265 25.611 21.0729C25.611 21.1191 25.611 21.1753 25.611 21.2405C25.6384 21.1892 25.6765 21.1306 25.7245 21.0652C25.7728 20.9998 25.833 20.9387 25.9053 20.8817C25.9774 20.8251 26.0634 20.7777 26.1632 20.7399C26.2632 20.7019 26.3784 20.6833 26.5088 20.6833C26.7395 20.6833 26.9149 20.7324 27.0352 20.8301C27.1557 20.9284 27.2399 21.0652 27.2881 21.2404C27.3123 21.1923 27.3509 21.1366 27.4042 21.0728C27.4575 21.0093 27.5238 20.9482 27.6031 20.8894C27.6822 20.8309 27.7732 20.782 27.8765 20.7427C27.9798 20.7032 28.095 20.6833 28.2222 20.6833C28.3804 20.6833 28.5137 20.7074 28.6223 20.7554C28.7306 20.8039 28.8166 20.8735 28.8802 20.9642C28.9438 21.0556 28.9892 21.1656 29.0168 21.2949C29.0445 21.4237 29.0581 21.5673 29.0581 21.7255V23.119H28.8261V21.8029C28.8261 21.6274 28.8121 21.4813 28.7847 21.3642C28.7572 21.2473 28.7159 21.1544 28.6609 21.0858C28.606 21.017 28.5395 20.9689 28.4625 20.9412C28.3849 20.9139 28.2944 20.9 28.1914 20.9C28.0745 20.9 27.9644 20.9242 27.861 20.9721C27.7581 21.0205 27.6675 21.084 27.5901 21.1629C27.5126 21.2422 27.4516 21.3326 27.4068 21.4341C27.3624 21.5354 27.3399 21.6411 27.3399 21.7514V23.1188H27.1078V21.8027C27.1078 21.6272 27.094 21.4811 27.0665 21.364C27.0388 21.2471 26.9984 21.1542 26.9452 21.0855C26.8918 21.0168 26.8266 20.9687 26.7492 20.941C26.6717 20.9137 26.5814 20.8998 26.4782 20.8998C26.3369 20.8998 26.2135 20.9306 26.1068 20.9926C25.9999 21.0545 25.9106 21.1336 25.8383 21.2299C25.7661 21.3263 25.712 21.4328 25.6759 21.5497C25.6398 21.6668 25.6215 21.7821 25.6215 21.8957V23.1187H25.3897V21.2456H25.3895Z" fill="#595050"></path>
  <path d="M29.7602 21.2457C29.7602 21.1807 29.7602 21.1244 29.7602 21.0783C29.7602 21.0317 29.7602 20.9903 29.7602 20.9545C29.7602 20.9181 29.7594 20.8838 29.7577 20.8512C29.7558 20.8187 29.7532 20.7832 29.75 20.7453H29.9666C29.9701 20.7831 29.9726 20.8168 29.9743 20.846C29.9763 20.875 29.978 20.9054 29.9796 20.9366C29.9813 20.9676 29.9829 21.0025 29.9846 21.042C29.9866 21.0817 29.9873 21.1289 29.9873 21.1842C30.0045 21.1531 30.032 21.1099 30.0697 21.055C30.1078 21.0001 30.1617 20.9452 30.2322 20.8898C30.3029 20.835 30.3898 20.7866 30.4928 20.7453C30.5962 20.7041 30.7199 20.6836 30.8644 20.6836C31.0467 20.6836 31.205 20.716 31.339 20.7814C31.4734 20.8469 31.5841 20.9365 31.6719 21.0499C31.7595 21.1633 31.8248 21.2965 31.8679 21.4497C31.9112 21.603 31.9326 21.7686 31.9326 21.9478C31.9326 22.1336 31.9025 22.3021 31.842 22.4531C31.7817 22.6046 31.6976 22.7345 31.5893 22.8428C31.4809 22.9513 31.3537 23.0347 31.2074 23.0932C31.0614 23.1518 30.9022 23.181 30.7302 23.181C30.5617 23.181 30.417 23.1576 30.2968 23.1113C30.1763 23.0647 30.0731 23.0178 29.9872 22.9694V24.151H29.7601L29.7602 21.2457ZM29.9873 22.7062C30.0114 22.7232 30.044 22.7466 30.0853 22.776C30.1267 22.8048 30.1784 22.8334 30.2403 22.861C30.3018 22.8887 30.3733 22.9128 30.4544 22.9332C30.5352 22.9538 30.6273 22.9641 30.7303 22.9641C30.861 22.9641 30.9849 22.942 31.1021 22.8972C31.2186 22.8522 31.3202 22.7869 31.4063 22.7008C31.4924 22.6148 31.5601 22.5093 31.61 22.3836C31.66 22.2581 31.685 22.1128 31.685 21.9477C31.685 21.81 31.6695 21.6772 31.6386 21.5502C31.6075 21.4229 31.5586 21.3114 31.4914 21.2148C31.4242 21.1188 31.3374 21.0418 31.2307 20.9849C31.1241 20.9286 30.9933 20.9003 30.8385 20.9003C30.7354 20.9003 30.6416 20.9155 30.5573 20.9467C30.4731 20.9777 30.3981 21.0192 30.3329 21.0729C30.2674 21.1262 30.2107 21.1884 30.1627 21.2586C30.1143 21.3292 30.0766 21.4024 30.0492 21.478C30.025 21.5401 30.0086 21.614 30.0001 21.6998C29.9914 21.7859 29.9872 21.8734 29.9872 21.963V22.7062H29.9873Z" fill="#595050"></path>
  <path d="M32.5254 19.6768H32.7575V23.119H32.5254V19.6768Z" fill="#595050"></path>
  <path d="M35.5292 22.7629C35.4259 22.8936 35.2857 22.9958 35.1086 23.0696C34.9312 23.1439 34.75 23.181 34.5642 23.181C34.3888 23.181 34.2261 23.1507 34.0764 23.0904C33.9271 23.0303 33.7989 22.9456 33.6922 22.8354C33.5856 22.7252 33.502 22.5933 33.4418 22.4406C33.3815 22.2872 33.3516 22.1178 33.3516 21.9322C33.3516 21.7601 33.3802 21.5985 33.4368 21.4469C33.4935 21.2959 33.5718 21.1632 33.6717 21.0499C33.7714 20.9365 33.8916 20.8469 34.033 20.7814C34.1739 20.7159 34.3287 20.6836 34.4971 20.6836C34.659 20.6836 34.8095 20.7121 34.9488 20.7684C35.0879 20.8253 35.2084 20.9087 35.31 21.0188C35.4114 21.1288 35.4905 21.2656 35.5471 21.4289C35.604 21.5926 35.6324 21.7809 35.6324 21.9941H33.6095C33.6129 22.1282 33.639 22.2546 33.687 22.3733C33.7353 22.4919 33.8006 22.5951 33.8833 22.6829C33.9658 22.7704 34.0647 22.8395 34.1799 22.8892C34.2951 22.9391 34.4234 22.9641 34.5643 22.9641C34.6366 22.9641 34.7115 22.9563 34.789 22.941C34.8661 22.9253 34.9411 22.9025 35.0133 22.871C35.0854 22.8402 35.1519 22.8042 35.2121 22.7628C35.272 22.7215 35.3228 22.6748 35.3642 22.6235L35.5292 22.7629ZM35.3795 21.793C35.3485 21.5004 35.2558 21.2788 35.1008 21.1272C34.9462 20.9758 34.7449 20.9004 34.4969 20.9004C34.3697 20.9004 34.2538 20.9235 34.1488 20.9699C34.0439 21.0164 33.9534 21.0801 33.8779 21.1609C33.8021 21.2419 33.7413 21.3363 33.6946 21.4448C33.6482 21.5528 33.6216 21.6688 33.6146 21.793H35.3795Z" fill="#595050"></path>
  <path d="M36.4377 20.9621H35.9629V20.7453H36.4377V19.9609H36.6698V20.7453H37.454V20.9621H36.6698V22.3349C36.6698 22.4758 36.68 22.5883 36.7008 22.6728C36.7214 22.7569 36.7514 22.8206 36.7911 22.8639C36.8305 22.9067 36.8764 22.9354 36.9276 22.9487C36.9795 22.9626 37.0362 22.9694 37.098 22.9694C37.1841 22.9694 37.258 22.9539 37.3198 22.923C37.3817 22.8921 37.4437 22.8386 37.5056 22.7629L37.6502 22.9027C37.5814 22.9917 37.503 23.0608 37.4153 23.1089C37.3275 23.1569 37.2133 23.181 37.0722 23.181C36.9794 23.181 36.8933 23.1696 36.8143 23.1474C36.7352 23.1249 36.668 23.0836 36.613 23.0236C36.5578 22.9634 36.5147 22.8829 36.4838 22.7809C36.4531 22.6796 36.4376 22.5497 36.4376 22.3912L36.4377 20.9621Z" fill="#595050"></path>
  <path d="M39.9882 22.7629C39.885 22.8936 39.7448 22.9958 39.5676 23.0696C39.3902 23.1439 39.209 23.181 39.0232 23.181C38.8478 23.181 38.685 23.1507 38.5354 23.0904C38.3859 23.0303 38.2576 22.9456 38.1512 22.8354C38.0446 22.7252 37.961 22.5933 37.9008 22.4406C37.8405 22.2872 37.8105 22.1178 37.8105 21.9322C37.8105 21.7601 37.8388 21.5985 37.8955 21.4469C37.9523 21.2959 38.0307 21.1632 38.1303 21.0499C38.2299 20.9365 38.3504 20.8469 38.4915 20.7814C38.6328 20.7159 38.7874 20.6836 38.956 20.6836C39.1176 20.6836 39.268 20.7121 39.4077 20.7684C39.547 20.8253 39.6673 20.9087 39.7689 21.0188C39.8703 21.1288 39.9493 21.2656 40.0061 21.4289C40.063 21.5926 40.0914 21.7809 40.0914 21.9941H38.0685C38.0718 22.1282 38.0976 22.2546 38.146 22.3733C38.194 22.4919 38.2595 22.5951 38.342 22.6829C38.4248 22.7704 38.5235 22.8395 38.6388 22.8892C38.7539 22.9391 38.882 22.9641 39.0233 22.9641C39.0954 22.9641 39.1702 22.9563 39.2477 22.941C39.325 22.9253 39.3998 22.9025 39.4723 22.871C39.5444 22.8402 39.6106 22.8042 39.6708 22.7628C39.7311 22.7215 39.7818 22.6748 39.8229 22.6235L39.9882 22.7629ZM39.8383 21.793C39.8075 21.5004 39.7145 21.2788 39.5599 21.1272C39.405 20.9758 39.2037 20.9004 38.956 20.9004C38.8286 20.9004 38.7125 20.9235 38.6079 20.9699C38.5029 21.0164 38.4124 21.0801 38.3369 21.1609C38.2611 21.2419 38.2001 21.3363 38.1537 21.4448C38.1073 21.5528 38.0807 21.6688 38.0737 21.793H39.8383Z" fill="#595050"></path>
  <path d="M41.707 19.6768H41.9547V23.119H41.707V19.6768Z" fill="#595050"></path>
  <path d="M42.7641 21.2456C42.7641 21.1806 42.7641 21.1242 42.7641 21.0782C42.7641 21.0316 42.7641 20.9902 42.7641 20.9543C42.7641 20.9179 42.7632 20.8836 42.7616 20.8511C42.7596 20.8185 42.7572 20.7831 42.7539 20.7451H42.9705C42.9738 20.783 42.9766 20.8175 42.9782 20.8487C42.98 20.8794 42.9815 20.9126 42.9835 20.9491C42.9852 20.985 42.986 21.0265 42.986 21.0729C42.986 21.1191 42.986 21.1753 42.986 21.2405C43.0134 21.1892 43.0521 21.1306 43.102 21.0652C43.152 20.9998 43.214 20.9387 43.2878 20.8817C43.3619 20.8251 43.4505 20.7777 43.5537 20.7399C43.6571 20.7019 43.7756 20.6833 43.9097 20.6833C44.0781 20.6833 44.22 20.7074 44.3356 20.7554C44.4507 20.8039 44.5443 20.8735 44.6168 20.9642C44.689 21.0556 44.7407 21.1656 44.7715 21.2949C44.8024 21.4237 44.8178 21.5673 44.8178 21.7255V23.119H44.5858V21.8029C44.5858 21.6274 44.5702 21.4813 44.5392 21.3642C44.5084 21.2473 44.4628 21.1544 44.4026 21.0858C44.3423 21.017 44.2685 20.9689 44.1807 20.9412C44.093 20.9139 43.9922 20.9 43.879 20.9C43.7274 20.9 43.5969 20.9308 43.4867 20.9928C43.3764 21.0547 43.2855 21.1338 43.2133 21.2301C43.1408 21.3265 43.087 21.4331 43.0508 21.5499C43.0144 21.667 42.9964 21.7823 42.9964 21.8959V23.1189H42.7643V21.2456H42.7641Z" fill="#595050"></path>
  <path d="M45.1016 20.7451H45.3647L46.2572 22.8353L47.1448 20.7451H47.3872L46.3553 23.1191H46.1387L45.1016 20.7451Z" fill="#595050"></path>
  <path d="M49.7519 22.7629C49.6485 22.8936 49.5085 22.9958 49.3313 23.0696C49.1538 23.1439 48.9726 23.181 48.7868 23.181C48.6114 23.181 48.4488 23.1507 48.2991 23.0904C48.1497 23.0303 48.0212 22.9456 47.9149 22.8354C47.8083 22.7252 47.7247 22.5933 47.6645 22.4406C47.6043 22.2872 47.5742 22.1178 47.5742 21.9322C47.5742 21.7601 47.6026 21.5985 47.6595 21.4469C47.7162 21.2959 47.7945 21.1632 47.8944 21.0499C47.994 20.9365 48.1143 20.8469 48.2555 20.7814C48.3963 20.7159 48.5512 20.6836 48.7197 20.6836C48.8813 20.6836 49.0317 20.7121 49.1711 20.7684C49.3105 20.8253 49.4309 20.9087 49.5323 21.0188C49.6339 21.1288 49.7131 21.2656 49.7697 21.4289C49.8267 21.5926 49.8549 21.7809 49.8549 21.9941H47.8324C47.8354 22.1282 47.8612 22.2546 47.9096 22.3733C47.9576 22.4919 48.0231 22.5951 48.1056 22.6829C48.1883 22.7704 48.2871 22.8395 48.4024 22.8892C48.5175 22.9391 48.6458 22.9641 48.7868 22.9641C48.859 22.9641 48.9338 22.9563 49.0112 22.941C49.0887 22.9253 49.1636 22.9025 49.2358 22.871C49.308 22.8402 49.3741 22.8042 49.4343 22.7628C49.4946 22.7215 49.5454 22.6748 49.5868 22.6235L49.7519 22.7629ZM49.602 21.793C49.5711 21.5004 49.4781 21.2788 49.3235 21.1272C49.1686 20.9758 48.9673 20.9004 48.7196 20.9004C48.5924 20.9004 48.4761 20.9235 48.3714 20.9699C48.2662 21.0164 48.176 21.0801 48.1005 21.1609C48.0247 21.2419 47.9636 21.3363 47.9173 21.4448C47.8709 21.5528 47.8443 21.6688 47.8372 21.793H49.602Z" fill="#595050"></path>
  <path d="M50.4525 22.6544C50.5524 22.7543 50.6666 22.8309 50.7956 22.8844C50.9246 22.9376 51.0769 22.9642 51.2523 22.9642C51.3486 22.9642 51.44 22.9552 51.5257 22.936C51.6117 22.9171 51.6876 22.8894 51.7529 22.8532C51.818 22.8171 51.8697 22.7719 51.9078 22.7166C51.9456 22.6616 51.9643 22.5961 51.9643 22.5203C51.9643 22.4342 51.9472 22.364 51.9127 22.3087C51.8783 22.2541 51.8277 22.2083 51.7605 22.1722C51.6934 22.1357 51.6089 22.1049 51.5077 22.079C51.4063 22.0532 51.29 22.0248 51.1595 21.9941C51.0493 21.97 50.9486 21.9417 50.8575 21.909C50.7664 21.8763 50.6878 21.836 50.6229 21.7877C50.5574 21.7396 50.5058 21.6785 50.4681 21.6043C50.43 21.5308 50.4111 21.4384 50.4111 21.3286C50.4111 21.2219 50.4352 21.1279 50.4836 21.0471C50.5316 20.9665 50.5961 20.8984 50.6771 20.8433C50.7575 20.7882 50.8508 20.748 50.9555 20.7222C51.0604 20.6963 51.1699 20.6836 51.2834 20.6836C51.4691 20.6836 51.6332 20.718 51.7758 20.7865C51.9188 20.8555 52.0348 20.9433 52.1242 21.0499L51.9642 21.1943C51.8818 21.1049 51.7863 21.0328 51.6778 20.9778C51.5695 20.9225 51.4399 20.8947 51.2883 20.8947C51.2125 20.8947 51.137 20.9011 51.0612 20.9128C50.9857 20.9254 50.9168 20.9472 50.855 20.98C50.7931 21.013 50.7431 21.0574 50.7053 21.1144C50.6673 21.171 50.6487 21.2457 50.6487 21.3386C50.6487 21.4144 50.6701 21.4781 50.7131 21.5294C50.756 21.5809 50.8119 21.6241 50.8809 21.6585C50.9497 21.6928 51.0288 21.7215 51.1182 21.7437C51.2076 21.7662 51.297 21.7876 51.3864 21.808C51.4828 21.8288 51.5799 21.8547 51.6779 21.8854C51.7759 21.9167 51.8656 21.9568 51.9465 22.0068C52.0272 22.0567 52.0924 22.1205 52.1424 22.1976C52.1921 22.275 52.2173 22.3728 52.2173 22.4893C52.2173 22.6098 52.1896 22.7128 52.1346 22.7989C52.0796 22.885 52.0074 22.9563 51.918 23.0133C51.8286 23.0696 51.7271 23.1121 51.6134 23.1397C51.4999 23.1672 51.3863 23.181 51.2728 23.181C51.0493 23.181 50.859 23.1481 50.7025 23.0827C50.546 23.0178 50.413 22.9297 50.3027 22.8198L50.4525 22.6544Z" fill="#595050"></path>
  <path d="M53.0428 20.9621H52.5684V20.7453H53.0428V19.9609H53.2751V20.7453H54.0594V20.9621H53.2751V22.3349C53.2751 22.4758 53.2854 22.5883 53.3062 22.6728C53.3267 22.7569 53.3571 22.8206 53.3965 22.8639C53.4359 22.9067 53.4814 22.9354 53.533 22.9487C53.5846 22.9626 53.6415 22.9694 53.7035 22.9694C53.7896 22.9694 53.863 22.9539 53.925 22.923C53.9875 22.8921 54.0485 22.8386 54.111 22.7629L54.2554 22.9027C54.1866 22.9917 54.1082 23.0608 54.0212 23.1089C53.9327 23.1569 53.8184 23.181 53.6773 23.181C53.5846 23.181 53.4983 23.1696 53.4194 23.1474C53.3404 23.1249 53.2732 23.0836 53.2186 23.0236C53.1629 22.9634 53.1199 22.8829 53.0894 22.7809C53.0583 22.6796 53.0428 22.5497 53.0428 22.3912V20.9621Z" fill="#595050"></path>
  <path d="M54.672 21.2456C54.672 21.1806 54.672 21.1242 54.672 21.0782C54.672 21.0316 54.672 20.9902 54.672 20.9543C54.672 20.9179 54.6714 20.8836 54.6698 20.8511C54.6678 20.8185 54.6656 20.7831 54.6621 20.7451H54.8783C54.8818 20.783 54.8847 20.8175 54.8866 20.8487C54.8883 20.8794 54.8894 20.9126 54.8913 20.9491C54.8931 20.985 54.8941 21.0265 54.8941 21.0729C54.8941 21.1191 54.8941 21.1753 54.8941 21.2405C54.9213 21.1892 54.9591 21.1306 55.0074 21.0652C55.0556 20.9998 55.1157 20.9387 55.1884 20.8817C55.26 20.8251 55.3462 20.7777 55.4462 20.7399C55.5458 20.7019 55.6613 20.6833 55.7916 20.6833C56.022 20.6833 56.1974 20.7324 56.3181 20.8301C56.4383 20.9284 56.5227 21.0652 56.5711 21.2404C56.5952 21.1923 56.6336 21.1366 56.6872 21.0728C56.7402 21.0093 56.8067 20.9482 56.8857 20.8894C56.9648 20.8309 57.0562 20.782 57.1592 20.7427C57.2624 20.7032 57.3779 20.6833 57.5051 20.6833C57.663 20.6833 57.7969 20.7074 57.9051 20.7554C58.0137 20.8039 58.0988 20.8735 58.1628 20.9642C58.2263 21.0556 58.2722 21.1656 58.3 21.2949C58.3271 21.4237 58.3413 21.5673 58.3413 21.7255V23.119H58.1082V21.8029C58.1082 21.6274 58.095 21.4813 58.0672 21.3642C58.0399 21.2473 57.9984 21.1544 57.9433 21.0858C57.8886 21.017 57.8226 20.9689 57.7448 20.9412C57.6678 20.9139 57.5769 20.9 57.4741 20.9C57.3571 20.9 57.2469 20.9242 57.1438 20.9721C57.0409 21.0205 56.9507 21.084 56.8731 21.1629C56.7957 21.2422 56.7344 21.3326 56.6897 21.4341C56.6447 21.5354 56.6226 21.6411 56.6226 21.7514V23.1188H56.3902V21.8027C56.3902 21.6272 56.3769 21.4811 56.349 21.364C56.3219 21.2471 56.2815 21.1542 56.2284 21.0855C56.1746 21.0168 56.1092 20.9687 56.0321 20.941C55.9544 20.9137 55.8641 20.8998 55.7611 20.8998C55.6201 20.8998 55.4966 20.9306 55.3891 20.9926C55.2825 21.0545 55.193 21.1336 55.1212 21.2299C55.0485 21.3263 54.995 21.4328 54.9587 21.5497C54.9224 21.6668 54.9042 21.7821 54.9042 21.8957V23.1187H54.6722V21.2456H54.672Z" fill="#595050"></path>
  <path d="M61.0916 22.7629C60.9886 22.8936 60.8483 22.9958 60.671 23.0696C60.4943 23.1439 60.3127 23.181 60.1267 23.181C59.9514 23.181 59.7892 23.1507 59.6392 23.0904C59.4896 23.0303 59.3612 22.9456 59.2545 22.8354C59.1478 22.7252 59.0647 22.5933 59.0048 22.4406C58.9447 22.2872 58.9141 22.1178 58.9141 21.9322C58.9141 21.7601 58.943 21.5985 58.9993 21.4469C59.0559 21.2959 59.1342 21.1632 59.2339 21.0499C59.3342 20.9365 59.4545 20.8469 59.5951 20.7814C59.7368 20.7159 59.8911 20.6836 60.0601 20.6836C60.2215 20.6836 60.372 20.7121 60.5115 20.7684C60.6508 20.8253 60.771 20.9087 60.8729 21.0188C60.9742 21.1288 61.053 21.2656 61.1095 21.4289C61.1669 21.5926 61.1951 21.7809 61.1951 21.9941H59.1721C59.1756 22.1282 59.2016 22.2546 59.2498 22.3733C59.2984 22.4919 59.363 22.5951 59.4455 22.6829C59.5285 22.7704 59.6271 22.8395 59.7426 22.8892C59.8579 22.9391 59.9858 22.9641 60.1268 22.9641C60.1992 22.9641 60.2738 22.9563 60.351 22.941C60.4288 22.9253 60.5037 22.9025 60.5757 22.871C60.6482 22.8402 60.7141 22.8042 60.7742 22.7628C60.8348 22.7215 60.8854 22.6748 60.9268 22.6235L61.0916 22.7629ZM60.9419 21.793C60.9108 21.5004 60.8182 21.2788 60.6632 21.1272C60.5083 20.9758 60.3072 20.9004 60.0598 20.9004C59.9319 20.9004 59.8159 20.9235 59.711 20.9699C59.6062 21.0164 59.5161 21.0801 59.4404 21.1609C59.3644 21.2419 59.3034 21.3363 59.2572 21.4448C59.2106 21.5528 59.1842 21.6688 59.177 21.793H60.9419Z" fill="#595050"></path>
  <path d="M61.7998 21.2456C61.7998 21.1806 61.7998 21.1242 61.7998 21.0782C61.7998 21.0316 61.7998 20.9902 61.7998 20.9543C61.7998 20.9179 61.7985 20.8836 61.797 20.8511C61.795 20.8185 61.7927 20.7831 61.7891 20.7451H62.0061C62.0095 20.783 62.0119 20.8175 62.0138 20.8487C62.0155 20.8794 62.0171 20.9126 62.0191 20.9491C62.0207 20.985 62.0213 21.0265 62.0213 21.0729C62.0213 21.1191 62.0213 21.1753 62.0213 21.2405C62.0491 21.1892 62.0879 21.1306 62.1373 21.0652C62.1875 20.9998 62.2495 20.9387 62.3229 20.8817C62.3971 20.8251 62.4856 20.7777 62.5893 20.7399C62.6926 20.7019 62.8109 20.6833 62.9452 20.6833C63.1138 20.6833 63.2558 20.7074 63.3708 20.7554C63.4863 20.8039 63.58 20.8735 63.6518 20.9642C63.7243 21.0556 63.7761 21.1656 63.8068 21.2949C63.838 21.4237 63.8534 21.5673 63.8534 21.7255V23.119H63.6213V21.8029C63.6213 21.6274 63.606 21.4813 63.5746 21.3642C63.5442 21.2473 63.4981 21.1544 63.4381 21.0858C63.3778 21.017 63.3039 20.9689 63.2158 20.9412C63.1285 20.9139 63.0278 20.9 62.9141 20.9C62.7626 20.9 62.6319 20.9308 62.5222 20.9928C62.4119 21.0547 62.3207 21.1338 62.2489 21.2301C62.1763 21.3265 62.1221 21.4331 62.0863 21.5499C62.0495 21.667 62.032 21.7823 62.032 21.8959V23.1189H61.8V21.2456H61.7998Z" fill="#595050"></path>
  <path d="M64.7562 20.9621H64.2812V20.7453H64.7562V19.9609H64.9882V20.7453H65.7725V20.9621H64.9882V22.3349C64.9882 22.4758 64.9983 22.5883 65.0189 22.6728C65.0396 22.7569 65.0696 22.8206 65.1089 22.8639C65.1485 22.9067 65.1945 22.9354 65.2456 22.9487C65.2975 22.9626 65.3541 22.9694 65.4161 22.9694C65.5021 22.9694 65.5763 22.9539 65.6382 22.923C65.7002 22.8921 65.762 22.8386 65.8239 22.7629L65.9683 22.9027C65.8997 22.9917 65.8215 23.0608 65.7338 23.1089C65.6459 23.1569 65.5316 23.181 65.3909 23.181C65.2976 23.181 65.2115 23.1696 65.1327 23.1474C65.0529 23.1249 64.9858 23.0836 64.9311 23.0236C64.8765 22.9634 64.8335 22.8829 64.8021 22.7809C64.7716 22.6796 64.7563 22.5497 64.7563 22.3912L64.7562 20.9621Z" fill="#595050"></path>
  <path d="M67.3984 19.6768H68.5386C68.7077 19.6768 68.8521 19.7004 68.9722 19.7467C69.0925 19.7933 69.1902 19.8549 69.2662 19.9327C69.3423 20.0099 69.3971 20.0993 69.4312 20.2005C69.4659 20.3023 69.483 20.41 69.483 20.5233C69.483 20.6196 69.4678 20.711 69.4366 20.7967C69.4059 20.8829 69.3635 20.961 69.3104 21.0316C69.2568 21.1024 69.1918 21.1616 69.1165 21.2099C69.0411 21.2582 68.9568 21.2905 68.8638 21.3078C68.9534 21.3214 69.0458 21.3457 69.1425 21.38C69.2385 21.4143 69.3264 21.4651 69.4059 21.5321C69.4848 21.5993 69.5502 21.6861 69.6014 21.7929C69.6533 21.8994 69.6794 22.0321 69.6794 22.1901C69.6794 22.3759 69.6453 22.5282 69.5762 22.6468C69.5073 22.7654 69.4136 22.86 69.2946 22.9305C69.176 23.001 69.038 23.0501 68.8821 23.0776C68.7251 23.1051 68.5593 23.119 68.3843 23.119H67.3985L67.3984 19.6768ZM68.3995 21.2097C68.4925 21.2097 68.588 21.1975 68.6857 21.1735C68.7835 21.1494 68.8726 21.1097 68.9515 21.0547C69.0305 20.9998 69.0958 20.9301 69.1478 20.8457C69.1991 20.7616 69.225 20.6594 69.225 20.539C69.225 20.4012 69.2003 20.291 69.1503 20.2085C69.1005 20.126 69.0359 20.0625 68.9568 20.0175C68.8774 19.9728 68.789 19.9436 68.691 19.9298C68.5928 19.9158 68.4954 19.9093 68.3995 19.9093H67.6463V21.2096H68.3995V21.2097ZM68.3215 22.8867C68.4525 22.8867 68.5833 22.8805 68.714 22.8686C68.8447 22.8566 68.9627 22.8273 69.0676 22.7807C69.1724 22.7344 69.2572 22.6648 69.3227 22.5717C69.388 22.4789 69.421 22.3516 69.421 22.19C69.421 22.035 69.3891 21.9088 69.3255 21.8108C69.262 21.7125 69.1811 21.6373 69.0828 21.5836C68.9849 21.5306 68.8756 21.4934 68.7553 21.4729C68.6351 21.4521 68.5177 21.4418 68.4047 21.4418H67.6462V22.8867H68.3215Z" fill="#595050"></path>
  <path d="M71.9326 23.1191C71.9299 23.071 71.9267 23.0176 71.9255 22.9589C71.9236 22.9004 71.9227 22.8214 71.9227 22.7215C71.8606 22.8111 71.7919 22.8859 71.7163 22.9461C71.6404 23.0064 71.5637 23.0535 71.4865 23.0878C71.4093 23.1219 71.3311 23.1463 71.2521 23.1601C71.1725 23.1737 71.1005 23.1809 71.0354 23.1809C70.935 23.1809 70.8355 23.1703 70.7358 23.1497C70.6365 23.1293 70.5468 23.092 70.4678 23.0386C70.3882 22.9854 70.324 22.9131 70.2739 22.822C70.2244 22.731 70.1992 22.6148 70.1992 22.4739C70.1992 22.36 70.218 22.2528 70.2558 22.1514C70.2941 22.0494 70.3541 21.962 70.4365 21.8882C70.519 21.8143 70.626 21.7557 70.7565 21.7124C70.8873 21.6701 71.0452 21.648 71.2312 21.648C71.3757 21.648 71.5047 21.6535 71.6181 21.6637C71.7316 21.6739 71.8277 21.686 71.9072 21.6998V21.5656C71.9072 21.4352 71.892 21.3266 71.8606 21.2405C71.8294 21.1545 71.7836 21.0859 71.721 21.0341C71.6596 20.9827 71.5838 20.9466 71.4941 20.926C71.4053 20.9052 71.3013 20.8945 71.1849 20.8945C70.9885 20.8945 70.8331 20.9232 70.7176 20.9799C70.6021 21.0365 70.5141 21.0908 70.4516 21.1425L70.3281 20.9826C70.3932 20.9206 70.4989 20.8552 70.6451 20.7863C70.7917 20.7178 70.9695 20.6833 71.1796 20.6833C71.4893 20.6833 71.7262 20.7485 71.8919 20.8793C72.0569 21.0101 72.1394 21.2273 72.1394 21.5292V22.6233C72.1394 22.6922 72.1394 22.7565 72.1394 22.8167C72.1394 22.8767 72.1411 22.9294 72.1441 22.9746L72.1547 23.119H71.9326V23.1191ZM71.912 21.9064C71.8403 21.8891 71.7498 21.8743 71.6415 21.8625C71.5329 21.8502 71.3946 21.8444 71.2259 21.8444C71.0504 21.8444 70.9115 21.8658 70.8084 21.9089C70.7051 21.9518 70.6263 22.0052 70.5732 22.0691C70.5196 22.1325 70.4852 22.2011 70.4699 22.275C70.4547 22.3491 70.4468 22.4156 70.4468 22.4739C70.4468 22.6492 70.5041 22.7758 70.6196 22.8529C70.7344 22.9305 70.8819 22.9693 71.0609 22.9693C71.1776 22.9693 71.2877 22.9486 71.3912 22.9074C71.494 22.8661 71.5841 22.811 71.6619 22.7419C71.7391 22.6733 71.8005 22.5949 71.8452 22.5076C71.8894 22.4195 71.9119 22.331 71.9119 22.2413V21.9064H71.912Z" fill="#595050"></path>
  <path d="M72.8583 21.2456C72.8583 21.1806 72.8583 21.1242 72.8583 21.0782C72.8583 21.0316 72.8583 20.9902 72.8583 20.9543C72.8583 20.9179 72.8575 20.8836 72.856 20.8511C72.8541 20.8185 72.8512 20.7831 72.8477 20.7451H73.0645C73.0681 20.783 73.0704 20.8175 73.0724 20.8487C73.074 20.8794 73.0756 20.9126 73.0777 20.9491C73.0793 20.985 73.0804 21.0265 73.0804 21.0729C73.0804 21.1191 73.0804 21.1753 73.0804 21.2405C73.1075 21.1892 73.1464 21.1306 73.1963 21.0652C73.2461 20.9998 73.3079 20.9387 73.3821 20.8817C73.4555 20.8251 73.5447 20.7777 73.6477 20.7399C73.7511 20.7019 73.8694 20.6833 74.0036 20.6833C74.1723 20.6833 74.3143 20.7074 74.4293 20.7554C74.5447 20.8039 74.6384 20.8735 74.711 20.9642C74.7826 21.0556 74.8346 21.1656 74.8652 21.2949C74.8966 21.4237 74.9118 21.5673 74.9118 21.7255V23.119H74.6798V21.8029C74.6798 21.6274 74.6642 21.4813 74.6332 21.3642C74.6025 21.2473 74.5572 21.1544 74.4965 21.0858C74.4363 21.017 74.3628 20.9689 74.275 20.9412C74.1869 20.9139 74.0863 20.9 73.9727 20.9C73.8211 20.9 73.691 20.9308 73.5807 20.9928C73.4704 21.0547 73.3792 21.1338 73.3073 21.2301C73.2348 21.3265 73.1805 21.4331 73.1447 21.5499C73.1086 21.667 73.0904 21.7823 73.0904 21.8959V23.1189H72.8584L72.8583 21.2456Z" fill="#595050"></path>
  <path d="M75.6016 19.6768H75.8336V21.9321L77.0516 20.7451H77.3556L76.4479 21.6274L77.5366 23.119H77.258L76.2826 21.7928L75.8338 22.2261V23.119H75.6017V19.6768H75.6016Z" fill="#595050"></path>
  <path d="M77.9082 19.9094H78.2335V20.2498H77.9082V19.9094ZM77.955 20.7451H78.187V23.1191H77.955V20.7451Z" fill="#595050"></path>
  <path d="M78.9208 21.2456C78.9208 21.1806 78.9208 21.1242 78.9208 21.0782C78.9208 21.0316 78.9208 20.9902 78.9208 20.9543C78.9208 20.9179 78.9195 20.8836 78.918 20.8511C78.916 20.8185 78.9137 20.7831 78.9102 20.7451H79.1271C79.1305 20.783 79.1329 20.8175 79.1348 20.8487C79.1364 20.8794 79.1381 20.9126 79.1401 20.9491C79.1417 20.985 79.1422 21.0265 79.1422 21.0729C79.1422 21.1191 79.1422 21.1753 79.1422 21.2405C79.1701 21.1892 79.2084 21.1306 79.2583 21.0652C79.3085 20.9998 79.3705 20.9387 79.4446 20.8817C79.5181 20.8251 79.6067 20.7777 79.7098 20.7399C79.8135 20.7019 79.9319 20.6833 80.0662 20.6833C80.2348 20.6833 80.3768 20.7074 80.4918 20.7554C80.6073 20.8039 80.701 20.8735 80.7733 20.9642C80.8452 21.0556 80.8971 21.1656 80.9278 21.2949C80.9591 21.4237 80.9744 21.5673 80.9744 21.7255V23.119H80.7423V21.8029C80.7423 21.6274 80.7267 21.4813 80.6956 21.3642C80.6651 21.2473 80.6191 21.1544 80.5591 21.0858C80.4989 21.017 80.4253 20.9689 80.3376 20.9412C80.2495 20.9139 80.1489 20.9 80.0351 20.9C79.8836 20.9 79.7528 20.9308 79.6432 20.9928C79.5329 21.0547 79.4417 21.1338 79.3691 21.2301C79.2973 21.3265 79.2431 21.4331 79.2073 21.5499C79.1705 21.667 79.1529 21.7823 79.1529 21.8959V23.1189H78.921V21.2456H78.9208Z" fill="#595050"></path>
  <path d="M81.8768 23.7639C81.932 23.8086 82.018 23.8575 82.1347 23.9108C82.2521 23.9641 82.4064 23.991 82.5991 23.991C82.7708 23.991 82.9136 23.9677 83.0275 23.9211C83.1411 23.875 83.2317 23.8111 83.3008 23.7306C83.3698 23.6495 83.4181 23.5541 83.4459 23.4438C83.4728 23.3335 83.487 23.2134 83.487 23.0826V22.7214C83.4317 22.811 83.3609 22.8885 83.2755 22.9537C83.2031 23.0126 83.1128 23.0644 83.0046 23.1112C82.896 23.1575 82.7664 23.1809 82.6152 23.1809C82.4325 23.1809 82.2744 23.1488 82.1402 23.0852C82.0057 23.0218 81.8951 22.9352 81.8072 22.8249C81.7195 22.7147 81.654 22.585 81.6109 22.4352C81.5679 22.2855 81.5469 22.1247 81.5469 21.9525C81.5469 21.7599 81.5804 21.5856 81.6476 21.4288C81.7144 21.2725 81.8072 21.1392 81.9258 21.029C82.0446 20.9189 82.1843 20.8338 82.3442 20.7732C82.5038 20.7135 82.677 20.6833 82.8625 20.6833C83.0345 20.6833 83.1974 20.7002 83.3505 20.7347C83.5032 20.7691 83.6261 20.8068 83.7192 20.8486V23.0671C83.7192 23.2424 83.6987 23.4015 83.6575 23.5445C83.6162 23.6873 83.5495 23.8078 83.4583 23.9058C83.3674 24.0037 83.2502 24.0793 83.1076 24.1327C82.9652 24.1865 82.792 24.2129 82.5893 24.2129C82.4754 24.2129 82.3722 24.2035 82.2792 24.1846C82.1868 24.1655 82.106 24.1417 82.0371 24.1123C81.9681 24.0831 81.9086 24.0532 81.8591 24.022C81.809 23.9911 81.77 23.9634 81.7431 23.9395L81.8768 23.7639ZM83.4917 21.0085C83.4404 20.988 83.3835 20.9704 83.3215 20.9569C83.2666 20.9432 83.2008 20.9302 83.1229 20.9179C83.0456 20.9063 82.9574 20.9003 82.857 20.9003C82.7127 20.9003 82.5767 20.9233 82.4495 20.9697C82.3221 21.0163 82.2097 21.0843 82.1117 21.1735C82.0133 21.2631 81.9362 21.3739 81.8796 21.5066C81.8223 21.6387 81.7941 21.7892 81.7941 21.9576C81.7941 22.092 81.8103 22.2196 81.8406 22.3397C81.8721 22.4602 81.921 22.5668 81.9881 22.6595C82.0553 22.7526 82.1419 22.8266 82.2486 22.8816C82.3551 22.9367 82.4859 22.9641 82.6408 22.9641C82.7919 22.9641 82.9206 22.9359 83.0276 22.879C83.134 22.8221 83.2219 22.7535 83.2907 22.6727C83.3593 22.5919 83.4103 22.5078 83.4429 22.4197C83.4759 22.3319 83.4917 22.2589 83.4917 22.2004V21.0085Z" fill="#595050"></path>
  <path d="M85.4233 22.4892C85.5402 22.6303 85.6805 22.7455 85.8437 22.8351C86.0068 22.9244 86.2059 22.9691 86.4399 22.9691C86.5736 22.9691 86.6968 22.9537 86.8087 22.9228C86.9204 22.8918 87.0166 22.8462 87.0973 22.786C87.1781 22.7259 87.2412 22.6498 87.2858 22.5589C87.3309 22.4679 87.353 22.3618 87.353 22.2413C87.353 22.1143 87.3276 22.0058 87.2782 21.9165C87.228 21.8271 87.1621 21.7524 87.0789 21.6918C86.9963 21.632 86.9029 21.583 86.7979 21.5449C86.693 21.5073 86.5876 21.4729 86.4809 21.4418C86.3501 21.4074 86.2194 21.3688 86.0887 21.3257C85.9576 21.2828 85.841 21.2257 85.7381 21.1552C85.6347 21.0849 85.5511 20.9953 85.4876 20.8871C85.4237 20.7785 85.3921 20.6383 85.3921 20.4667C85.3921 20.3496 85.4162 20.2377 85.4646 20.131C85.5123 20.0244 85.5818 19.9314 85.6731 19.8522C85.7644 19.7731 85.8763 19.7104 86.0085 19.664C86.141 19.6175 86.292 19.5942 86.4604 19.5942C86.6049 19.5942 86.7325 19.6094 86.8447 19.6405C86.9565 19.6714 87.0543 19.7103 87.1387 19.7569C87.2229 19.8032 87.2936 19.8539 87.3502 19.9091C87.4073 19.9639 87.4544 20.0173 87.4921 20.069L87.3166 20.2185C87.2857 20.1772 87.2462 20.1334 87.1979 20.0869C87.1497 20.0406 87.0914 19.9973 87.0224 19.958C86.9533 19.9187 86.872 19.8857 86.7774 19.8601C86.6829 19.834 86.5733 19.821 86.4497 19.821C86.3087 19.821 86.1875 19.84 86.0862 19.878C85.9847 19.9156 85.9012 19.9661 85.8357 20.0275C85.7702 20.0894 85.7219 20.1591 85.6913 20.2366C85.6607 20.3141 85.6447 20.3944 85.6447 20.4768C85.6447 20.6004 85.673 20.7031 85.7303 20.7839C85.7868 20.8643 85.8615 20.9315 85.9541 20.9847C86.0473 21.0382 86.1515 21.0822 86.2666 21.1168C86.382 21.151 86.4981 21.1837 86.6153 21.2145C86.7355 21.2452 86.8558 21.2838 86.9759 21.3304C87.0968 21.3771 87.2039 21.439 87.2988 21.5164C87.393 21.5939 87.4703 21.6907 87.5308 21.8077C87.591 21.9252 87.6211 22.0695 87.6211 22.2411C87.6211 22.3892 87.5904 22.5225 87.528 22.6415C87.4666 22.7599 87.3831 22.8605 87.2781 22.9432C87.1727 23.0256 87.0483 23.0895 86.9038 23.1342C86.7595 23.1786 86.6045 23.2012 86.4396 23.2012C86.2944 23.2012 86.1609 23.1858 86.0371 23.1548C85.9128 23.1238 85.8003 23.0832 85.699 23.0334C85.5976 22.9835 85.5079 22.9269 85.4307 22.8634C85.353 22.7994 85.2905 22.7333 85.2422 22.6645L85.4233 22.4892Z" fill="#595050"></path>
  <path d="M89.291 23.1809C89.1224 23.1809 88.9647 23.148 88.8168 23.0826C88.6687 23.0177 88.5386 22.928 88.4267 22.8145C88.3154 22.7008 88.2273 22.5686 88.1637 22.4173C88.1003 22.2659 88.0684 22.1043 88.0684 21.9322C88.0684 21.7601 88.1003 21.5985 88.1637 21.4469C88.2273 21.2959 88.3154 21.1632 88.4267 21.0499C88.5386 20.9365 88.6687 20.8469 88.8168 20.7814C88.9647 20.7159 89.1223 20.6836 89.291 20.6836C89.4597 20.6836 89.6181 20.716 89.766 20.7814C89.9139 20.8469 90.0436 20.9365 90.1554 21.0499C90.2673 21.1633 90.3553 21.2959 90.419 21.4469C90.4825 21.5985 90.5144 21.7601 90.5144 21.9322C90.5144 22.1043 90.4825 22.2659 90.419 22.4173C90.3553 22.5686 90.2673 22.7009 90.1554 22.8145C90.0436 22.928 89.9139 23.0177 89.766 23.0826C89.6181 23.148 89.4597 23.1809 89.291 23.1809ZM89.291 22.9693C89.4288 22.9693 89.558 22.9419 89.6784 22.8866C89.7985 22.8316 89.903 22.7578 89.9907 22.6647C90.0784 22.5717 90.1473 22.4626 90.197 22.3373C90.2468 22.2114 90.2716 22.0764 90.2716 21.9322C90.2716 21.7948 90.2458 21.6629 90.1945 21.5375C90.1425 21.4119 90.073 21.3009 89.9854 21.2049C89.8982 21.1085 89.7938 21.0328 89.673 20.9777C89.5528 20.9224 89.4253 20.8946 89.291 20.8946C89.1502 20.8946 89.0205 20.9224 88.9018 20.9777C88.7831 21.0327 88.6802 21.1062 88.5921 21.1995C88.5045 21.2922 88.4356 21.4015 88.3854 21.5271C88.3358 21.6526 88.3112 21.7876 88.3112 21.9322C88.3112 22.0732 88.3365 22.2057 88.3883 22.3294C88.4403 22.453 88.5097 22.5633 88.5969 22.6595C88.6847 22.7559 88.7891 22.8316 88.9091 22.8867C89.0299 22.942 89.1575 22.9693 89.291 22.9693Z" fill="#595050"></path>
  <path d="M91.1094 19.6768H91.3414V23.119H91.1094V19.6768Z" fill="#595050"></path>
  <path d="M92.0312 20.7451H92.2638V22.0612C92.2638 22.2365 92.278 22.3827 92.3074 22.4997C92.3363 22.6165 92.3804 22.7095 92.4391 22.7784C92.4974 22.8473 92.5699 22.8953 92.656 22.923C92.742 22.9506 92.8413 22.9642 92.9552 22.9642C93.1032 22.9642 93.232 22.9333 93.3423 22.8711C93.4519 22.8092 93.5428 22.7304 93.6134 22.6339C93.6835 22.5379 93.7358 22.4312 93.77 22.3139C93.8048 22.1971 93.8219 22.0819 93.8219 21.9687V20.7452H94.054V22.6185C94.054 22.6872 94.054 22.744 94.054 22.7888C94.054 22.8335 94.054 22.874 94.054 22.9099C94.054 22.9463 94.0546 22.9807 94.0565 23.0134C94.0583 23.0462 94.0612 23.0814 94.0646 23.1193H93.8477C93.8444 23.0815 93.8418 23.0471 93.8402 23.0159C93.8381 22.9852 93.8366 22.9515 93.8349 22.9151C93.8329 22.8791 93.8325 22.8388 93.8325 22.7941C93.8325 22.7493 93.8325 22.6925 93.8325 22.6236C93.8046 22.675 93.7672 22.7339 93.7189 22.7991C93.6703 22.8647 93.6104 22.9255 93.5379 22.9822C93.466 23.0389 93.3788 23.0865 93.2775 23.1243C93.1761 23.1623 93.0582 23.1812 92.9238 23.1812C92.7553 23.1812 92.6146 23.1571 92.5007 23.109C92.3878 23.0609 92.2953 22.991 92.2251 22.8999C92.1543 22.8086 92.1044 22.6991 92.0755 22.5721C92.0461 22.4452 92.0312 22.3006 92.0312 22.1391V20.7451Z" fill="#595050"></path>
  <path d="M94.9879 20.9621H94.5137V20.7453H94.9879V19.9609H95.2208V20.7453H96.0051V20.9621H95.2208V22.3349C95.2208 22.4758 95.2307 22.5883 95.2513 22.6728C95.2718 22.7569 95.3021 22.8206 95.3416 22.8639C95.3811 22.9067 95.427 22.9354 95.4781 22.9487C95.53 22.9626 95.5867 22.9694 95.6486 22.9694C95.7346 22.9694 95.8088 22.9539 95.8707 22.923C95.9326 22.8921 95.9946 22.8386 96.0562 22.7629L96.2006 22.9027C96.1323 22.9917 96.0539 23.0608 95.9661 23.1089C95.8781 23.1569 95.764 23.181 95.6225 23.181C95.53 23.181 95.444 23.1696 95.3652 23.1474C95.2853 23.1249 95.2182 23.0836 95.1636 23.0236C95.1085 22.9634 95.0657 22.8829 95.0346 22.7809C95.0039 22.6796 94.9879 22.5497 94.9879 22.3912V20.9621Z" fill="#595050"></path>
  <path d="M96.5723 19.9094H96.8968V20.2498H96.5723V19.9094ZM96.6181 20.7451H96.8509V23.1191H96.6181V20.7451Z" fill="#595050"></path>
  <path d="M98.6783 23.1809C98.5092 23.1809 98.3513 23.148 98.2032 23.0826C98.0556 23.0177 97.9254 22.928 97.814 22.8145C97.7019 22.7008 97.6141 22.5686 97.5506 22.4173C97.4871 22.2659 97.4551 22.1043 97.4551 21.9322C97.4551 21.7601 97.4871 21.5985 97.5506 21.4469C97.6141 21.2959 97.7019 21.1632 97.814 21.0499C97.9254 20.9365 98.0556 20.8469 98.2032 20.7814C98.3514 20.7159 98.5092 20.6836 98.6783 20.6836C98.8462 20.6836 99.0048 20.716 99.1528 20.7814C99.3004 20.8469 99.4301 20.9365 99.5428 21.0499C99.6541 21.1633 99.7418 21.2959 99.8055 21.4469C99.8693 21.5985 99.9009 21.7601 99.9009 21.9322C99.9009 22.1043 99.8693 22.2659 99.8055 22.4173C99.7418 22.5686 99.6541 22.7009 99.5428 22.8145C99.4301 22.928 99.3004 23.0177 99.1528 23.0826C99.0048 23.148 98.8463 23.1809 98.6783 23.1809ZM98.6783 22.9693C98.8157 22.9693 98.9446 22.9419 99.0655 22.8866C99.1858 22.8316 99.2893 22.7578 99.3771 22.6647C99.4651 22.5717 99.534 22.4626 99.5834 22.3373C99.6335 22.2114 99.6583 22.0764 99.6583 21.9322C99.6583 21.7948 99.6332 21.6629 99.5811 21.5375C99.5293 21.4119 99.4598 21.3009 99.3723 21.2049C99.2845 21.1085 99.1802 21.0328 99.0595 20.9777C98.9393 20.9224 98.8121 20.8946 98.6783 20.8946C98.537 20.8946 98.4072 20.9224 98.2888 20.9777C98.1696 21.0327 98.0667 21.1062 97.979 21.1995C97.8913 21.2922 97.8221 21.4015 97.7727 21.5271C97.7226 21.6526 97.6979 21.7876 97.6979 21.9322C97.6979 22.0732 97.724 22.2057 97.7749 22.3294C97.8268 22.453 97.8965 22.5633 97.9843 22.6595C98.0716 22.7559 98.1759 22.8316 98.2961 22.8867C98.4168 22.942 98.544 22.9693 98.6783 22.9693Z" fill="#595050"></path>
  <path d="M100.505 21.2456C100.505 21.1806 100.505 21.1242 100.505 21.0782C100.505 21.0316 100.505 20.9902 100.505 20.9543C100.505 20.9179 100.503 20.8836 100.502 20.8511C100.5 20.8185 100.498 20.7831 100.494 20.7451H100.711C100.714 20.783 100.717 20.8175 100.719 20.8487C100.721 20.8794 100.722 20.9126 100.724 20.9491C100.726 20.985 100.726 21.0265 100.726 21.0729C100.726 21.1191 100.726 21.1753 100.726 21.2405C100.754 21.1892 100.792 21.1306 100.842 21.0652C100.892 20.9998 100.954 20.9387 101.028 20.8817C101.102 20.8251 101.19 20.7777 101.294 20.7399C101.397 20.7019 101.516 20.6833 101.65 20.6833C101.819 20.6833 101.961 20.7074 102.076 20.7554C102.191 20.8039 102.285 20.8735 102.357 20.9642C102.429 21.0556 102.481 21.1656 102.512 21.2949C102.543 21.4237 102.558 21.5673 102.558 21.7255V23.119H102.326V21.8029C102.326 21.6274 102.31 21.4813 102.28 21.3642C102.249 21.2473 102.203 21.1544 102.143 21.0858C102.083 21.017 102.009 20.9689 101.921 20.9412C101.833 20.9139 101.733 20.9 101.619 20.9C101.468 20.9 101.337 20.9308 101.227 20.9928C101.117 21.0547 101.026 21.1338 100.954 21.2301C100.881 21.3265 100.827 21.4331 100.791 21.5499C100.755 21.667 100.737 21.7823 100.737 21.8959V23.1189H100.505L100.505 21.2456Z" fill="#595050"></path>
  <path d="M103.255 22.6544C103.355 22.7543 103.469 22.8309 103.598 22.8844C103.727 22.9376 103.879 22.9642 104.055 22.9642C104.151 22.9642 104.242 22.9552 104.329 22.936C104.415 22.9171 104.49 22.8894 104.555 22.8532C104.621 22.8171 104.672 22.7719 104.71 22.7166C104.748 22.6616 104.767 22.5961 104.767 22.5203C104.767 22.4342 104.75 22.364 104.715 22.3087C104.681 22.2541 104.63 22.2083 104.563 22.1722C104.496 22.1357 104.412 22.1049 104.31 22.079C104.209 22.0531 104.092 22.0248 103.962 21.9941C103.852 21.97 103.751 21.9417 103.66 21.909C103.569 21.8763 103.491 21.836 103.425 21.7877C103.36 21.7396 103.309 21.6785 103.27 21.6043C103.233 21.5308 103.214 21.4384 103.214 21.3286C103.214 21.2219 103.238 21.1279 103.286 21.0471C103.334 20.9665 103.399 20.8984 103.479 20.8433C103.56 20.7882 103.653 20.748 103.758 20.7222C103.863 20.6963 103.972 20.6836 104.086 20.6836C104.271 20.6836 104.436 20.718 104.578 20.7865C104.721 20.8555 104.838 20.9433 104.927 21.0499L104.767 21.1943C104.684 21.1049 104.589 21.0328 104.481 20.9778C104.372 20.9225 104.242 20.8947 104.091 20.8947C104.015 20.8947 103.939 20.9011 103.864 20.9128C103.788 20.9254 103.719 20.9472 103.658 20.98C103.596 21.013 103.546 21.0574 103.508 21.1144C103.47 21.171 103.451 21.2457 103.451 21.3386C103.451 21.4144 103.472 21.4781 103.515 21.5294C103.558 21.5809 103.614 21.6241 103.683 21.6585C103.752 21.6928 103.831 21.7215 103.921 21.7437C104.01 21.7662 104.099 21.7876 104.189 21.808C104.285 21.8288 104.383 21.8547 104.481 21.8854C104.578 21.9167 104.668 21.9568 104.749 22.0068C104.829 22.0567 104.895 22.1205 104.945 22.1976C104.995 22.275 105.02 22.3728 105.02 22.4893C105.02 22.6098 104.992 22.7128 104.937 22.7989C104.882 22.8849 104.81 22.9563 104.721 23.0133C104.631 23.0696 104.529 23.1121 104.417 23.1397C104.303 23.1672 104.189 23.181 104.075 23.181C103.852 23.181 103.662 23.1481 103.505 23.0827C103.349 23.0178 103.215 22.9297 103.105 22.8198L103.255 22.6544Z" fill="#595050"></path>
  <path d="M64.6412 13.41C64.3267 13.8449 63.9441 14.2531 63.4946 14.6357C63.0445 15.018 62.5455 15.3522 61.9986 15.6368C61.451 15.9219 60.8589 16.1467 60.2214 16.3114C59.5842 16.4763 58.9202 16.5589 58.2309 16.5589C57.0905 16.5589 56.049 16.3639 55.1042 15.9741C54.1592 15.5843 53.346 15.0405 52.6639 14.3433C51.9812 13.646 51.4526 12.8213 51.0778 11.8689C50.7031 10.9169 50.5156 9.87105 50.5156 8.73111C50.5156 7.62163 50.7031 6.58307 51.0778 5.61604C51.4526 4.64881 51.9812 3.80917 52.6639 3.09669C53.346 2.38452 54.1629 1.8223 55.1155 1.40949C56.0678 0.997314 57.1205 0.791016 58.2756 0.791016C59.6703 0.791016 60.8889 1.04608 61.9312 1.5558C62.9732 2.06582 63.8394 2.80076 64.5286 3.75998L62.2121 5.98694C61.7622 5.35724 61.2294 4.85106 60.6147 4.46851C59.9998 4.08607 59.2654 3.89506 58.4105 3.89506C57.736 3.89506 57.1285 4.01869 56.5886 4.26616C56.049 4.51353 55.5917 4.8548 55.2169 5.28965C54.8422 5.7247 54.5534 6.23078 54.3508 6.80787C54.1486 7.38528 54.0473 7.99648 54.0473 8.64106C54.0473 9.30102 54.1486 9.91576 54.3508 10.4857C54.5534 11.0556 54.8422 11.5503 55.2169 11.9701C55.5917 12.39 56.0412 12.7201 56.5662 12.9595C57.0907 13.1999 57.6834 13.3196 58.3434 13.3196C58.8833 13.3196 59.3516 13.2635 59.7494 13.151C60.1463 13.0386 60.4987 12.889 60.8064 12.7013C61.1134 12.5139 61.3876 12.2962 61.6273 12.0489C61.8672 11.8016 62.0999 11.5504 62.3245 11.2953L64.6412 13.41Z" fill="#3D3D3D"></path>
  <path d="M70.7161 1.17358H74.4726L79.9606 16.1767H76.2497L75.1025 12.7354H69.8163L68.6692 16.1767H65.1152L70.7161 1.17358ZM74.293 10.1036L72.4709 4.43515L70.6037 10.1036H74.293Z" fill="#3D3D3D"></path>
  <path d="M81.5781 1.17358H87.0439C87.9738 1.17358 88.7686 1.30845 89.4285 1.57849C90.0878 1.84842 90.6317 2.20487 91.059 2.64689C91.4868 3.08933 91.8017 3.60279 92.0039 4.18778C92.2064 4.77247 92.3078 5.37993 92.3078 6.00963C92.3078 6.81923 92.1688 7.52786 91.8917 8.13521C91.6134 8.74236 91.239 9.24864 90.7667 9.65344C90.2942 10.0583 89.7509 10.3659 89.136 10.5756C88.5212 10.7858 87.8767 10.8906 87.202 10.8906H84.8849V16.1766H81.5781V1.17358ZM86.8642 8.14644C87.4941 8.14644 87.9922 7.95543 88.3597 7.57299C88.7275 7.19055 88.9109 6.69227 88.9109 6.07722C88.9109 5.44741 88.7234 4.93395 88.3486 4.53654C87.9739 4.13922 87.4712 3.94031 86.8421 3.94031H84.8849V8.14644H86.8642Z" fill="#3D3D3D"></path>
  <path d="M95.4811 11.7003C95.6755 11.9104 95.9043 12.1243 96.1669 12.3414C96.4292 12.559 96.7216 12.7576 97.0444 12.9374C97.3669 13.1173 97.7191 13.2637 98.1014 13.3761C98.4839 13.4882 98.8923 13.545 99.3276 13.545C99.5822 13.545 99.8368 13.5075 100.092 13.4325C100.347 13.3574 100.579 13.2492 100.79 13.1063C100.999 12.9639 101.168 12.791 101.296 12.5888C101.422 12.3864 101.487 12.1579 101.487 11.9028C101.487 11.3481 101.217 10.9169 100.677 10.6093C100.137 10.3022 99.2824 9.99842 98.1127 9.69833C97.5427 9.56347 97.0142 9.36882 96.5269 9.11354C96.0397 8.85879 95.6194 8.55142 95.2671 8.19134C94.9147 7.83156 94.6412 7.41907 94.4464 6.95438C94.2513 6.48959 94.154 5.97218 94.154 5.40226C94.154 4.77234 94.2665 4.18027 94.491 3.62512C94.7161 3.07069 95.0574 2.57928 95.5148 2.15202C95.9719 1.72466 96.5416 1.38714 97.224 1.13977C97.9063 0.892396 98.7123 0.768555 99.642 0.768555C100.407 0.768555 101.082 0.847372 101.666 1.0047C102.251 1.16223 102.75 1.34991 103.162 1.56713C103.574 1.78455 103.912 2.00967 104.175 2.24186C104.437 2.47457 104.636 2.65789 104.77 2.79296L102.814 4.95233C102.648 4.81747 102.458 4.67117 102.24 4.51374C102.023 4.35631 101.779 4.21001 101.509 4.07515C101.239 3.94018 100.943 3.82778 100.62 3.73773C100.298 3.64768 99.9567 3.60276 99.5973 3.60276C99.3569 3.60276 99.1206 3.64051 98.8885 3.71527C98.656 3.79055 98.446 3.89173 98.2586 4.01889C98.0712 4.14648 97.9215 4.29642 97.8091 4.46872C97.6964 4.64153 97.6404 4.82527 97.6404 5.01981C97.6404 5.52984 97.9097 5.94213 98.4503 6.25688C98.9898 6.57194 99.7322 6.83449 100.677 7.04412C101.231 7.17919 101.775 7.36292 102.308 7.59522C102.84 7.82803 103.316 8.13155 103.736 8.50619C104.156 8.88125 104.493 9.34241 104.748 9.88956C105.003 10.4372 105.13 11.1005 105.13 11.8803C105.13 12.5552 104.981 13.1777 104.681 13.747C104.38 14.3175 103.972 14.8119 103.455 15.232C102.937 15.652 102.33 15.978 101.633 16.21C100.936 16.4421 100.182 16.5588 99.3723 16.5588C98.622 16.5588 97.94 16.4876 97.3253 16.3449C96.7101 16.2021 96.1557 16.0156 95.6608 15.7827C95.1661 15.5507 94.7197 15.2843 94.3225 14.9843C93.9253 14.6844 93.5835 14.3767 93.2988 14.0622L95.4811 11.7003Z" fill="#3D3D3D"></path>
  <path d="M28.2465 8.4886C27.4072 7.79265 26.322 7.34377 25.3636 6.9476C24.0423 6.40149 22.9016 5.92921 22.9016 5.05619C22.9016 4.67333 23.0805 4.32354 23.4049 4.07055C23.7475 3.80384 24.2253 3.65608 24.7508 3.65608C26.4027 3.65608 27.7195 4.82452 27.732 4.83554L28.0535 5.12908L29.5179 2.38367L29.35 2.2069C29.2862 2.1391 27.7445 0.547363 24.7711 0.547363C23.3444 0.547363 22.0318 1.00332 21.0749 1.83132C20.1029 2.67128 19.5682 3.83119 19.5682 5.09674C19.5682 6.33068 20.046 7.32786 21.0296 8.14608C21.8561 8.83288 22.8855 9.27656 23.8817 9.7059C25.2418 10.2921 26.4161 10.7981 26.4161 11.6991C26.4161 12.3858 25.9511 13.1194 24.6485 13.1194C22.7809 13.1194 21.2806 11.6961 21.2664 11.6817L20.9852 11.4088L19.166 13.9301L19.3481 14.133C19.3677 14.1547 19.8375 14.6738 20.7223 15.1907C21.5322 15.6636 22.8636 16.2283 24.6077 16.2283C26.1321 16.2283 27.4319 15.7602 28.3664 14.8759C29.2448 14.0439 29.7289 12.894 29.7289 11.6378C29.729 10.3464 29.2443 9.31577 28.2465 8.4886Z" fill="#3D3D3D"></path>
  <path d="M47.0386 0.773926H43.6289V16.001H47.0386V0.773926Z" fill="#3D3D3D"></path>
  <path d="M41.4907 9.15846C41.1531 8.62868 40.6912 8.20683 40.1406 7.92473C41.0288 7.21235 41.5314 6.11951 41.5314 4.87101C41.5314 3.60921 41.0502 2.55609 40.1406 1.82562C39.2839 1.13706 38.0931 0.773438 36.6975 0.773438H31.1484V16.0004H36.7589C38.2472 16.0004 39.5349 15.6243 40.4817 14.9121C41.5561 14.104 42.1237 12.9006 42.1237 11.4329C42.1237 10.5964 41.905 9.81021 41.4907 9.15846ZM36.9635 13.1506H34.3679V3.62563H36.6566C37.6822 3.62563 38.271 4.19909 38.271 5.19918C38.271 6.20904 37.7416 6.72146 36.6974 6.72146H35.9084V9.52364H36.9634C37.5399 9.52364 38.0205 9.70446 38.3522 10.0454C38.701 10.4043 38.8431 10.7588 38.8431 11.2702C38.8432 12.4294 38.1235 13.1506 36.9635 13.1506Z" fill="#3D3D3D"></path>
  <path d="M7.64385 0.820068C3.42201 0.820068 0 4.24998 0 8.4817C0 12.4482 3.00775 15.7107 6.86233 16.1034V10.5383C6.0336 10.2221 5.44361 9.4196 5.44361 8.48159C5.44361 7.26814 6.43091 6.28073 7.64374 6.28073C8.85751 6.28073 9.8445 7.26814 9.8445 8.48159C9.8445 9.4196 9.25399 10.2221 8.42578 10.5383V16.1034C12.28 15.7107 15.2881 12.4482 15.2881 8.4817C15.2882 4.25009 11.8654 0.820068 7.64385 0.820068Z" fill="#0A0A0A"></path>
</svg>
