<svg width="14" height="14" viewBox="0 0 14 14" fill="none" xmlns="http://www.w3.org/2000/svg">
<path d="M5.99603 1.37107C6.30688 0.396508 7.68586 0.396508 7.99672 1.37107L8.99234 4.49248C9.09569 4.8165 9.34958 5.07039 9.67361 5.17374L12.795 6.16937C13.7696 6.48022 13.7696 7.8592 12.795 8.17006L9.67361 9.16568C9.34958 9.26903 9.09569 9.52292 8.99234 9.84695L7.99672 12.9684C7.68586 13.9429 6.30688 13.9429 5.99603 12.9683L5.0004 9.84695C4.89705 9.52292 4.64316 9.26903 4.31914 9.16568L1.19773 8.17006C0.223168 7.8592 0.223168 6.48022 1.19773 6.16937L4.31914 5.17374C4.64316 5.07039 4.89705 4.8165 5.0004 4.49248L5.99603 1.37107Z" fill="#FD2E35"/>
</svg>
