<?xml version="1.0" encoding="UTF-8"?>
<svg xmlns="http://www.w3.org/2000/svg" width="89" height="25" viewBox="0 0 89 25" fill="none">
  <path fill-rule="evenodd" clip-rule="evenodd" d="M59.2597 4.49936V6.95526H55.0217V13.9715C55.0217 15.4619 55.9046 16.2071 57.3698 16.2071C58.162 16.193 58.9447 16.0805 59.7036 15.8696L60.0901 18.3536C59.3695 18.6302 58.1 18.8223 56.945 18.8223C53.9383 18.8223 52.0483 17.1726 52.0483 14.323V6.95526H49.4902V4.49936H52.0961V0H54.9835V4.49936H59.2597Z" fill="#323232"></path>
  <path fill-rule="evenodd" clip-rule="evenodd" d="M42.9833 10.068C41.1697 9.70244 40.4968 9.26188 40.4968 8.38544C40.4968 7.34965 41.5754 6.74974 43.7469 6.74974C45.2407 6.74974 46.9541 7.07313 48.1186 7.56993L48.4336 5.05779C47.2357 4.54692 45.3648 4.20947 43.599 4.20947C40.0052 4.20947 37.6094 5.96235 37.6094 8.34326C37.6094 10.5086 38.9552 11.9193 41.4847 12.4208L43.6085 12.8426C45.4651 13.2082 46.243 13.7191 46.243 14.6705C46.243 15.7531 45.236 16.2781 43.0835 16.2781C41.394 16.2593 39.7236 15.9125 38.1678 15.2657L37.8098 17.7685C39.0507 18.4246 41.0886 18.8183 43.2744 18.8183C46.7632 18.8183 49.1256 17.4592 49.1256 14.6236C49.1256 12.1818 47.5698 10.9866 44.6489 10.4008L42.9833 10.068Z" fill="#323232"></path>
  <path fill-rule="evenodd" clip-rule="evenodd" d="M67.2982 4.20947C62.9266 4.20947 59.6621 7.41058 59.6621 11.5162H59.6669C59.6669 15.6219 62.9313 18.823 67.303 18.823C71.6747 18.823 74.9344 15.6219 74.9344 11.5162C74.9344 7.41058 71.6699 4.20947 67.2982 4.20947ZM67.303 16.1047C64.5922 16.1047 62.6259 14.1034 62.6259 11.5162H62.6307C62.6307 8.92911 64.5922 6.92784 67.303 6.92784C70.0138 6.92784 71.9754 8.92911 71.9754 11.5162C71.9754 14.0987 70.0138 16.1047 67.303 16.1047Z" fill="#323232"></path>
  <path fill-rule="evenodd" clip-rule="evenodd" d="M77.3959 4.49854L81.1185 9.43846L84.8459 4.49854H88.2583L82.9607 11.3647L88.3776 18.5262H84.97L81.1185 13.2817L77.2718 18.5262H73.8594L79.2763 11.3647L73.9787 4.49854H77.3959Z" fill="#323232"></path>
  <path d="M29.7996 4.20947C27.3608 4.20947 25.7429 5.08591 24.6786 6.41697V4.50474H21.7148V24.3769H24.6786V16.6155C25.7429 17.9466 27.3608 18.823 29.7996 18.823C33.8849 18.823 37.0157 15.9031 37.0157 11.5912C37.0157 7.27935 33.8849 4.20947 29.7996 4.20947ZM29.4417 16.2218C26.6879 16.2218 24.6977 14.1784 24.6977 11.5912C24.6977 9.0041 26.6736 6.81535 29.4417 6.81067H29.4464C32.2145 6.81067 34.0567 9.0041 34.0567 11.5912C34.052 14.1737 32.2098 16.2218 29.4417 16.2218Z" fill="#323232"></path>
  <path fill-rule="evenodd" clip-rule="evenodd" d="M6.47548 12.0162C6.90978 11.7163 7.32022 11.3788 7.69726 11.0085C8.4036 10.3196 8.99063 9.52751 9.43925 8.66044V12.4005C9.43925 14.7252 10.7422 16.0656 12.9423 16.0656C15.2045 16.0656 16.9847 14.7252 16.9847 12.4005V4.49854H19.9437V18.5262H16.9656V16.7593C16.4884 17.4764 15.1234 18.8168 12.4746 18.8168C8.55155 18.8168 6.4707 16.4218 6.4707 13.0145L6.47548 12.0162Z" fill="#323232"></path>
  <path d="M0 10.8126V13.6247C2.49606 13.6247 4.8919 12.6639 6.67207 10.9485C7.54546 10.1049 8.24225 9.10194 8.71474 7.99584C9.192 6.88975 9.4354 5.70398 9.4354 4.50415H6.52889C6.52889 5.33372 6.35708 6.15392 6.02777 6.92256C5.69847 7.68651 5.21643 8.38016 4.61509 8.96602C3.38376 10.1424 1.72768 10.8079 0 10.8126Z" fill="#323232"></path>
</svg>
