<svg width="25" height="26" viewBox="0 0 25 26" fill="none" xmlns="http://www.w3.org/2000/svg">
<path d="M19.8604 9.92514C17.4802 9.92514 15.5517 7.99656 15.5517 5.61636V1.99113C15.5517 1.31979 15.0024 0.770508 14.331 0.770508H6.39703C3.02813 0.770508 0.293945 3.49249 0.293945 6.84918V15.3569C0.293945 18.7258 3.02813 21.46 6.39703 21.46H8.22796C8.56973 21.46 9.00916 21.6797 9.20445 21.9482L11.0354 24.3773C11.841 25.4514 13.1593 25.4514 13.9649 24.3773L15.7958 21.9482C16.0277 21.6431 16.3939 21.46 16.7723 21.46H18.6154C21.9843 21.46 24.7063 18.738 24.7063 15.3691V11.1458C24.7063 10.4744 24.157 9.92514 23.4857 9.92514H19.8604ZM7.61765 12.9767C6.93411 12.9767 6.39703 12.4274 6.39703 11.7561C6.39703 11.0847 6.93411 10.5354 7.61765 10.5354C8.28899 10.5354 8.83827 11.0847 8.83827 11.7561C8.83827 12.4274 8.3012 12.9767 7.61765 12.9767ZM12.5001 12.9767C11.8166 12.9767 11.2795 12.4274 11.2795 11.7561C11.2795 11.0847 11.8166 10.5354 12.5001 10.5354C13.1715 10.5354 13.7207 11.0847 13.7207 11.7561C13.7207 12.4274 13.1837 12.9767 12.5001 12.9767Z" fill="#FD2E35"/>
</svg>
